<svg width="100" height="100" viewBox="0 0 100 100" fill="none" xmlns="http://www.w3.org/2000/svg">
<path d="M50 6.25C50.2411 6.25 50.4787 6.30807 50.6914 6.41992L88.0693 26.2598C88.1462 26.268 88.2233 26.2811 88.2988 26.3018C88.6704 26.4036 88.9872 26.6491 89.1797 26.9854C89.3178 27.2266 89.382 27.5003 89.3721 27.7744C89.3724 27.7868 89.375 27.7991 89.375 27.8115V69.5C89.375 69.7523 89.3077 70.0003 89.1797 70.2188C89.0517 70.4372 88.8672 70.619 88.6455 70.7451L51.7344 91.7354C51.6758 91.8636 51.6008 91.983 51.5088 92.0869C51.2744 92.3515 50.9564 92.5 50.625 92.5C50.5257 92.5 50.428 92.4848 50.333 92.459C50.2241 92.4842 50.1128 92.5 50 92.5C49.744 92.5 49.4922 92.4338 49.2705 92.3076L11.3545 70.7451C11.1328 70.619 10.9483 70.4372 10.8203 70.2188C10.6923 70.0003 10.625 69.7523 10.625 69.5V27.8115C10.625 27.7991 10.6266 27.7868 10.627 27.7744C10.6171 27.5004 10.6822 27.2266 10.8203 26.9854C11.0128 26.6491 11.3296 26.4036 11.7012 26.3018C11.7764 26.2812 11.8531 26.268 11.9297 26.2598L49.3086 6.41992C49.5213 6.30807 49.7589 6.25 50 6.25ZM13.542 68.6699L49.375 89.0479V51.1035C49.3402 51.0868 49.304 51.0723 49.2705 51.0527L13.542 30.2676V68.6699ZM51.875 50.3857V88.3369L86.458 68.6699V30.2676L51.875 50.3857ZM15.1621 27.8135L50 48.082L84.8369 27.8135L50 9.32031L15.1621 27.8135Z" fill="white"/>
</svg>
