<svg width="126" height="28" viewBox="0 0 126 28" fill="none" xmlns="http://www.w3.org/2000/svg">
<path d="M50.7598 23.4911V5.10864H66.2471C67.3704 5.10864 68.3023 5.20634 69.0413 5.40313C69.7818 5.59992 70.37 5.93349 70.8073 6.40523C71.2446 6.87697 71.5562 7.49246 71.7434 8.24892C71.9306 9.00678 72.0242 9.94607 72.0242 11.0682V17.5344C72.0242 18.6565 71.9306 19.6014 71.7434 20.3662C71.5562 21.1324 71.2446 21.7465 70.8073 22.2099C70.37 22.6733 69.7818 23.0027 69.0413 23.1981C68.3009 23.3948 67.369 23.4925 66.2471 23.4925H50.7598V23.4911ZM68.4126 11.0933C68.4126 10.1847 68.252 9.56644 67.9306 9.23567C67.6093 8.90628 67.0476 8.7416 66.2457 8.7416H54.3979V19.8833H66.2471C67.0672 19.8833 67.633 19.7228 67.946 19.4018C68.2576 19.0808 68.414 18.4667 68.414 17.5581V11.0919L68.4126 11.0933Z" fill="white"/>
<path d="M80.1024 16.1692V23.4896H76.4922V5.10706H93.7706V8.74141H80.1024V12.9633H93.4758V16.1706H80.1024V16.1692Z" fill="white"/>
<path d="M97.8083 23.4909V5.1084H101.419V23.4909H97.8083Z" fill="white"/>
<path d="M122.443 23.4909L109.47 9.94443V23.4909H106.02V5.1084H109.898L122.523 18.4148V5.1084H126V23.4909H122.443Z" fill="white"/>
<path d="M44.8611 6.58847C44.2972 5.02964 43.4406 3.70597 42.3145 2.65462C41.182 1.59681 39.8051 0.85255 38.2196 0.442033C37.1267 0.144651 35.6366 0 33.6628 0H5.85028L4.80835 5.30601H33.2947C35.3066 5.30601 36.3064 5.49268 36.7926 5.65026C37.6501 5.92663 38.3458 6.49069 38.9201 7.37395C39.5115 8.28468 39.8116 9.67301 39.8116 11.5017C39.8116 13.2174 39.5681 14.7584 39.0876 16.0821C38.6022 17.4195 37.9478 18.6244 37.1461 19.6571C36.5572 20.4071 35.8995 21.0156 35.1804 21.4705C34.6699 21.801 34.0308 22.0588 33.281 22.2366C31.9567 22.551 30.4076 22.711 28.678 22.711H20.2148L19.1098 27.9992H29.8146C31.566 27.9992 33.0763 27.8537 34.3002 27.566C35.9367 27.1862 37.3823 26.5858 38.5974 25.7826C39.8011 24.9874 40.9611 23.8827 42.0451 22.5C43.1259 21.1214 44.0101 19.5076 44.6742 17.7039C45.344 15.8841 45.683 13.8501 45.683 11.6577C45.683 9.80392 45.4063 8.09801 44.8594 6.58686L44.8611 6.58847Z" fill="white"/>
<path d="M32.9542 11.0759H3.53592L0 28.0001H5.86974L8.30063 16.3827H31.8411L32.9542 11.0759Z" fill="white"/>
</svg>
