<svg width="1920" height="637" viewBox="0 0 1920 637" fill="none" xmlns="http://www.w3.org/2000/svg">
<g clip-path="url(#clip0_46_1277)">
<rect width="1920" height="637" fill="#82A3C9"/>
<g style="mix-blend-mode:lighten" opacity="0.2">
<path d="M1920 0H0V1011H1920V0Z" fill="url(#paint0_radial_46_1277)"/>
</g>
<g opacity="0.2">
<mask id="mask0_46_1277" style="mask-type:luminance" maskUnits="userSpaceOnUse" x="430" y="-37" width="1598" height="691">
<path d="M2027.9 -37H430V654H2027.9V-37Z" fill="white"/>
</mask>
<g mask="url(#mask0_46_1277)">
<path d="M2028.27 378.944H1881.82L1881.53 378.38L1808.6 239.451L1808.89 238.888L1881.82 99.959H2028.27L2028.57 100.523L2101.49 239.451L2101.2 240.015L2028.27 378.944ZM1883 376.689H2027.08L2099.13 239.451L2027.08 102.213H1883L1810.96 239.451L1883 376.689Z" fill="url(#paint1_linear_46_1277)"/>
<path d="M2031.73 385.529H1878.36L1878.07 384.966L1801.68 239.448L1801.98 238.884L1878.37 93.3696H2031.73L2032.02 93.9333L2108.41 239.448L2108.11 240.012L2031.73 385.529ZM1879.54 383.275H2030.54L2106.04 239.448L2030.54 95.6241H1879.54L1804.05 239.448L1879.54 383.275Z" fill="url(#paint2_linear_46_1277)"/>
<path d="M2035.19 392.119H1874.9L1874.61 391.555L1794.76 239.451L1795.06 238.888L1874.91 86.7842H2035.19L2035.48 87.3478L2115.33 239.451L2115.03 240.015L2035.19 392.119ZM1876.09 389.864H2034L2112.96 239.451L2034 89.0387H1876.09L1797.13 239.451L1876.09 389.864Z" fill="url(#paint3_linear_46_1277)"/>
<path d="M2038.64 398.707H1871.44L1871.15 398.144L1787.84 239.451L1788.14 238.888L1871.44 80.1953H2038.64L2038.94 80.7589L2122.24 239.451L2121.94 240.015L2038.64 398.707H2038.64ZM1872.63 396.453H2037.46L2119.87 239.451L2037.46 82.4498H1872.63L1790.21 239.451L1872.63 396.453Z" fill="url(#paint4_linear_46_1277)"/>
<path d="M2042.1 405.296H1867.98L1867.69 404.732L1780.93 239.451L1781.22 238.887L1867.99 73.606H2042.1L2042.4 74.1696L2129.16 239.451L2128.86 240.014L2042.1 405.296ZM1869.17 403.041H2040.92L2126.8 239.451L2040.92 75.8605H1869.17L1783.29 239.451L1869.17 403.041Z" fill="url(#paint5_linear_46_1277)"/>
<path d="M2045.56 411.884H1864.53L1864.23 411.321L1774.01 239.451L1774.31 238.887L1864.53 67.0171H2045.56L2045.86 67.5807L2136.08 239.451L2135.78 240.014L2045.56 411.884ZM1865.71 409.63H2044.38L2133.71 239.451L2044.38 69.2716H1865.71L1776.38 239.451L1865.71 409.63Z" fill="url(#paint6_linear_46_1277)"/>
<path d="M2049.02 418.474H1861.07L1860.77 417.91L1767.09 239.451L1767.39 238.888L1861.07 60.4287H2049.02L2049.32 60.9923L2143 239.451L2142.7 240.015L2049.02 418.474ZM1862.25 416.219H2047.84L2140.63 239.451L2047.84 62.6832H1862.25L1769.46 239.451L1862.25 416.219Z" fill="url(#paint7_linear_46_1277)"/>
<path d="M2052.48 425.062H1857.61L1857.32 424.499L1760.18 239.451L1760.47 238.888L1857.61 53.8398H2052.48L2052.78 54.4035L2149.92 239.451L2149.62 240.015L2052.48 425.062ZM1858.79 422.808H2051.29L2147.54 239.451L2051.29 56.0944H1858.79L1762.54 239.451L1858.79 422.808Z" fill="url(#paint8_linear_46_1277)"/>
<path d="M2055.94 431.651H1854.15L1853.85 431.088L1753.26 239.451L1753.55 238.887L1854.15 47.251H2055.94L2056.23 47.8146L2156.83 239.451L2156.53 240.015L2055.94 431.651ZM1855.33 429.397H2054.75L2154.46 239.451L2054.75 49.5055H1855.33L1755.62 239.451L1855.33 429.397Z" fill="url(#paint9_linear_46_1277)"/>
<path d="M2059.39 438.241H1850.69L1850.4 437.677L1746.34 239.452L1746.64 238.888L1850.69 40.6626H2059.4L2059.69 41.2262L2163.75 239.452L2163.45 240.015L2059.4 438.241H2059.39ZM1851.87 435.986H2058.21L2161.38 239.452L2058.21 42.9171H1851.87L1748.71 239.452L1851.87 435.986Z" fill="url(#paint10_linear_46_1277)"/>
<path d="M2062.85 444.829H1847.23L1846.94 444.265L1739.43 239.451L1739.72 238.887L1847.24 34.0732H2062.86L2063.15 34.6369L2170.66 239.451L2170.37 240.015L2062.85 444.829ZM1848.42 442.574H2061.67L2168.3 239.451L2061.67 36.3278H1848.42L1741.79 239.451L1848.42 442.574Z" fill="url(#paint11_linear_46_1277)"/>
<path d="M2066.31 451.418H1843.77L1843.48 450.854L1732.51 239.451L1732.8 238.887L1843.78 27.4844H2066.31L2066.61 28.048L2177.58 239.451L2177.29 240.015L2066.31 451.418ZM1844.96 449.163H2065.13L2175.22 239.451L2065.13 29.7389H1844.96L1734.87 239.451L1844.96 449.163Z" fill="url(#paint12_linear_46_1277)"/>
<path d="M2069.77 458.007H1840.32L1840.02 457.443L1725.59 239.451L1725.89 238.888L1840.32 20.896H2069.77L2070.07 21.4596L2184.5 239.451L2184.2 240.015L2069.77 458.007ZM1841.5 455.752H2068.59L2182.13 239.451L2068.59 23.1505H1841.5L1727.96 239.451L1841.5 455.752Z" fill="url(#paint13_linear_46_1277)"/>
<path d="M2073.23 464.596H1836.86L1836.56 464.032L1718.67 239.451L1718.97 238.888L1836.86 14.3071H2073.23L2073.53 14.8708L2191.42 239.451L2191.12 240.015L2073.23 464.596ZM1838.04 462.341H2072.05L2189.05 239.451L2072.05 16.5616H1838.04L1721.04 239.451L1838.04 462.341Z" fill="url(#paint14_linear_46_1277)"/>
<path d="M2076.69 471.184H1833.4L1833.1 470.621L1711.75 239.451L1712.05 238.888L1833.4 7.71826H2076.69L2076.98 8.28189L2198.33 239.451L2198.04 240.015L2076.69 471.184H2076.69ZM1834.58 468.93H2075.5L2195.96 239.451L2075.5 9.97278H1834.58L1714.12 239.451L1834.58 468.93Z" fill="url(#paint15_linear_46_1277)"/>
<path d="M2080.15 477.773H1829.94L1829.64 477.209L1704.84 239.451L1705.13 238.888L1829.94 1.12939H2080.15L2080.44 1.69302L2205.25 239.451L2204.95 240.015L2080.15 477.773ZM1831.12 475.519H2078.96L2202.88 239.451L2078.96 3.38391H1831.12L1707.2 239.451L1831.12 475.519Z" fill="url(#paint16_linear_46_1277)"/>
<path d="M2083.61 484.362H1826.48L1826.19 483.799L1697.92 239.452L1698.22 238.888L1826.48 -5.45898H2083.61L2083.9 -4.89536L2212.17 239.452L2211.87 240.015L2083.61 484.362ZM1827.67 482.108H2082.42L2209.8 239.452L2082.42 -3.20447H1827.67L1700.29 239.452L1827.67 482.108Z" fill="url(#paint17_linear_46_1277)"/>
<path d="M2087.06 490.951H1823.02L1822.73 490.387L1691 239.451L1691.3 238.888L1823.03 -12.0483H2087.07L2087.36 -11.4847L2219.09 239.451L2218.79 240.015L2087.06 490.951ZM1824.21 488.696H2085.88L2216.72 239.451L2085.88 -9.79383H1824.21L1693.37 239.451L1824.21 488.696Z" fill="url(#paint18_linear_46_1277)"/>
<path d="M2090.52 497.539H1819.56L1819.27 496.976L1684.08 239.451L1684.38 238.887L1819.57 -18.6372H2090.53L2090.82 -18.0736L2226.01 239.451L2225.71 240.015L2090.52 497.539ZM1820.75 495.285H2089.34L2223.64 239.451L2089.34 -16.3827H1820.75L1686.45 239.451L1820.75 495.285Z" fill="url(#paint19_linear_46_1277)"/>
<path d="M2093.98 504.128H1816.11L1815.81 503.565L1677.17 239.451L1677.47 238.887L1816.11 -25.2261H2093.99L2094.28 -24.6624L2232.92 239.451L2232.63 240.015L2093.98 504.128ZM1817.29 501.874H2092.8L2230.55 239.451L2092.8 -22.9716H1817.29L1679.53 239.451L1817.29 501.874Z" fill="url(#paint20_linear_46_1277)"/>
<path d="M2097.44 510.717H1812.65L1812.35 510.154L1670.25 239.451L1670.55 238.888L1812.65 -31.8145H2097.44L2097.73 -31.2508L2239.84 239.451L2239.54 240.015L2097.44 510.717H2097.44ZM1813.83 508.463H2096.26L2237.47 239.451L2096.26 -29.5599H1813.83L1672.62 239.451L1813.83 508.463Z" fill="url(#paint21_linear_46_1277)"/>
<path d="M2100.9 517.306H1809.19L1808.89 516.742L1663.33 239.451L1663.63 238.887L1809.19 -38.4038H2100.9L2101.19 -37.8402L2246.75 239.451L2246.45 240.015L2100.9 517.306H2100.9ZM1810.37 515.051H2099.71L2244.39 239.451L2099.71 -36.1493H1810.37L1665.7 239.451L1810.37 515.051Z" fill="url(#paint22_linear_46_1277)"/>
<path d="M1737.74 102.212H1591.29L1591 101.649L1518.07 -37.2771L1518.37 -37.8407L1591.29 -176.77H1737.74L1738.04 -176.206L1810.96 -37.2771L1810.67 -36.7135L1737.74 102.212ZM1592.47 99.958H1736.56L1808.6 -37.2771L1736.56 -174.515H1592.47L1520.43 -37.2771L1592.47 99.958Z" fill="url(#paint23_linear_46_1277)"/>
<path d="M1741.2 108.802H1587.83L1587.54 108.239L1511.15 -37.2761L1511.45 -37.8397L1587.84 -183.354H1741.2L1741.5 -182.791L1817.88 -37.2761L1817.59 -36.7124L1741.2 108.802ZM1589.02 106.548H1740.01L1815.51 -37.2761L1740.01 -181.1H1589.02L1513.52 -37.2761L1589.02 106.548Z" fill="url(#paint24_linear_46_1277)"/>
<path d="M1744.66 115.39H1584.38L1584.08 114.826L1504.23 -37.2776L1504.53 -37.8412L1584.38 -189.945H1744.66L1744.95 -189.381L1824.8 -37.2776L1824.5 -36.714L1744.66 115.39ZM1585.56 113.135H1743.47L1822.43 -37.2776L1743.47 -187.69H1585.56L1506.6 -37.2776L1585.56 113.135Z" fill="url(#paint25_linear_46_1277)"/>
<path d="M1748.12 121.979H1580.92L1580.62 121.415L1497.32 -37.2771L1497.61 -37.8408L1580.92 -196.533H1748.12L1748.41 -195.97L1831.71 -37.2771L1831.42 -36.7135L1748.11 121.979H1748.12ZM1582.1 119.724H1746.93L1829.35 -37.2771L1746.93 -194.279H1582.1L1499.68 -37.2771L1582.1 119.724Z" fill="url(#paint26_linear_46_1277)"/>
<path d="M1751.57 128.568H1577.46L1577.16 128.005L1490.4 -37.2767L1490.7 -37.8403L1577.46 -203.122H1751.58L1751.87 -202.558L1838.63 -37.2767L1838.33 -36.7131L1751.57 128.568ZM1578.64 126.314H1750.39L1836.27 -37.2767L1750.39 -200.867H1578.64L1492.77 -37.2767L1578.64 126.314Z" fill="url(#paint27_linear_46_1277)"/>
<path d="M1755.03 135.156H1574L1573.7 134.593L1483.48 -37.2773L1483.78 -37.8409L1574 -209.711H1755.03L1755.33 -209.147L1845.55 -37.2773L1845.25 -36.7136L1755.03 135.156ZM1575.18 132.902H1753.85L1843.18 -37.2773L1753.85 -207.456H1575.18L1485.85 -37.2773L1575.18 132.902Z" fill="url(#paint28_linear_46_1277)"/>
<path d="M1758.49 141.746H1570.54L1570.24 141.182L1476.56 -37.2768L1476.86 -37.8404L1570.54 -216.299H1758.49L1758.79 -215.736L1852.47 -37.2768L1852.17 -36.7132L1758.49 141.746ZM1571.72 139.491H1757.31L1850.1 -37.2768L1757.31 -214.045H1571.72L1478.93 -37.2768L1571.72 139.491Z" fill="url(#paint29_linear_46_1277)"/>
<path d="M1761.95 148.333H1567.08L1566.79 147.77L1469.65 -37.2778L1469.95 -37.8415L1567.09 -222.889H1761.95L1762.25 -222.326L1859.39 -37.2778L1859.09 -36.7142L1761.95 148.333ZM1568.26 146.079H1760.77L1857.02 -37.2778L1760.77 -220.635H1568.26L1472.01 -37.2778L1568.26 146.079Z" fill="url(#paint30_linear_46_1277)"/>
<path d="M1765.41 154.922H1563.62L1563.33 154.359L1462.73 -37.2779L1463.03 -37.8416L1563.62 -229.478H1765.41L1765.7 -228.914L1866.3 -37.2779L1866 -36.7143L1765.41 154.922H1765.41ZM1564.8 152.668H1764.22L1863.93 -37.2779L1764.22 -227.224H1564.8L1465.1 -37.2779L1564.8 152.668Z" fill="url(#paint31_linear_46_1277)"/>
<path d="M1768.87 161.512H1560.16L1559.87 160.948L1455.81 -37.2769L1456.11 -37.8406L1560.17 -236.066H1768.87L1769.17 -235.502L1873.22 -37.2769L1872.92 -36.7133L1768.87 161.512ZM1561.35 159.258H1767.68L1870.85 -37.2769L1767.68 -233.811H1561.35L1458.18 -37.2769L1561.35 159.258Z" fill="url(#paint32_linear_46_1277)"/>
<path d="M1772.32 168.101H1556.71L1556.41 167.537L1448.9 -37.277L1449.19 -37.8407L1556.71 -242.655H1772.33L1772.62 -242.091L1880.14 -37.277L1879.84 -36.7134L1772.32 168.101ZM1557.89 165.846H1771.14L1877.77 -37.277L1771.14 -240.4H1557.89L1451.26 -37.277L1557.89 165.846Z" fill="url(#paint33_linear_46_1277)"/>
<path d="M1775.78 174.689H1553.25L1552.95 174.125L1441.98 -37.2775L1442.28 -37.8412L1553.25 -249.244H1775.79L1776.08 -248.681L1887.05 -37.2775L1886.76 -36.7139L1775.78 174.689ZM1554.43 172.435H1774.6L1884.69 -37.2775L1774.6 -246.99H1554.43L1444.34 -37.2775L1554.43 172.435Z" fill="url(#paint34_linear_46_1277)"/>
<path d="M1779.24 181.278H1549.79L1549.49 180.715L1435.06 -37.2771L1435.36 -37.8407L1549.79 -255.833H1779.25L1779.54 -255.269L1893.97 -37.2771L1893.67 -36.7135L1779.24 181.278ZM1550.97 179.024H1778.06L1891.6 -37.2771L1778.06 -253.578H1550.97L1437.43 -37.2771L1550.97 179.024Z" fill="url(#paint35_linear_46_1277)"/>
<path d="M1782.7 187.867H1546.33L1546.04 187.303L1428.14 -37.2772L1428.44 -37.8408L1546.33 -262.421H1782.7L1783 -261.858L1900.89 -37.2772L1900.59 -36.7135L1782.7 187.867ZM1547.51 185.612H1781.52L1898.52 -37.2772L1781.52 -260.167H1547.51L1430.51 -37.2772L1547.51 185.612Z" fill="url(#paint36_linear_46_1277)"/>
<path d="M1786.16 194.456H1542.87L1542.58 193.892L1421.23 -37.2772L1421.52 -37.8409L1542.87 -269.01H1786.16L1786.46 -268.447L1907.81 -37.2772L1907.51 -36.7136L1786.16 194.456H1786.16ZM1544.05 192.201H1784.98L1905.44 -37.2772L1784.98 -266.756H1544.05L1423.59 -37.2772L1544.05 192.201Z" fill="url(#paint37_linear_46_1277)"/>
<path d="M1789.62 201.045H1539.41L1539.11 200.481L1414.31 -37.2768L1414.61 -37.8404L1539.41 -275.599H1789.62L1789.91 -275.035L1914.72 -37.2768L1914.42 -36.7131L1789.62 201.045ZM1540.6 198.791H1788.44L1912.36 -37.2768L1788.44 -273.344H1540.6L1416.68 -37.2768L1540.6 198.791Z" fill="url(#paint38_linear_46_1277)"/>
<path d="M1793.08 207.634H1535.95L1535.66 207.07L1407.39 -37.2768L1407.69 -37.8404L1535.96 -282.188H1793.08L1793.37 -281.624L1921.64 -37.2768L1921.34 -36.7132L1793.08 207.634ZM1537.14 205.379H1791.9L1919.28 -37.2768L1791.9 -279.933H1537.14L1409.76 -37.2768L1537.14 205.379Z" fill="url(#paint39_linear_46_1277)"/>
<path d="M1796.54 214.223H1532.49L1532.2 213.659L1400.47 -37.2769L1400.77 -37.8405L1532.5 -288.776H1796.54L1796.83 -288.213L1928.56 -37.2769L1928.26 -36.7133L1796.54 214.223ZM1533.68 211.968H1795.35L1926.19 -37.2769L1795.35 -286.522H1533.68L1402.84 -37.2769L1533.68 211.968Z" fill="url(#paint40_linear_46_1277)"/>
<path d="M1800 220.811H1529.03L1528.74 220.247L1393.56 -37.2774L1393.85 -37.841L1529.04 -295.366H1800L1800.29 -294.802L1935.48 -37.2774L1935.18 -36.7138L1800 220.811ZM1530.22 218.556H1798.81L1933.11 -37.2774L1798.81 -293.111H1530.22L1395.92 -37.2774L1530.22 218.556Z" fill="url(#paint41_linear_46_1277)"/>
<path d="M1803.45 227.4H1525.58L1525.28 226.836L1386.64 -37.277L1386.94 -37.8406L1525.58 -301.954H1803.45L1803.75 -301.39L1942.39 -37.277L1942.09 -36.7134L1803.45 227.4H1803.45ZM1526.76 225.146H1802.27L1940.02 -37.277L1802.27 -299.7H1526.76L1389.01 -37.277L1526.76 225.146Z" fill="url(#paint42_linear_46_1277)"/>
<path d="M1806.91 233.989H1522.12L1521.82 233.425L1379.72 -37.277L1380.02 -37.8406L1522.12 -308.543H1806.91L1807.21 -307.979L1949.31 -37.277L1949.01 -36.7134L1806.91 233.989H1806.91ZM1523.3 231.734H1805.73L1946.94 -37.277L1805.73 -306.288H1523.3L1382.09 -37.277L1523.3 231.734H1523.3Z" fill="url(#paint43_linear_46_1277)"/>
<path d="M1810.37 240.578H1518.66L1518.36 240.014L1372.8 -37.2771L1373.1 -37.8407L1518.66 -315.132H1810.37L1810.67 -314.568L1956.23 -37.2771L1955.93 -36.7134L1810.37 240.578ZM1519.84 238.323H1809.19L1953.86 -37.2771L1809.19 -312.877H1519.84L1375.17 -37.2771L1519.84 238.323Z" fill="url(#paint44_linear_46_1277)"/>
<path d="M1447.21 655.669H1300.76L1300.47 655.105L1227.54 516.179L1227.84 515.616L1300.77 376.687H1447.21L1447.51 377.251L1520.44 516.179L1520.14 516.743L1447.21 655.669ZM1301.95 653.415H1446.03L1518.07 516.179L1446.03 378.942H1301.95L1229.91 516.179L1301.95 653.415Z" fill="url(#paint45_linear_46_1277)"/>
<path d="M1450.67 662.259H1297.31L1297.01 661.695L1220.62 516.18L1220.92 515.617L1297.31 370.102H1450.67L1450.97 370.666L1527.35 516.18L1527.06 516.744L1450.67 662.259ZM1298.49 660.004H1449.49L1524.98 516.18L1449.49 372.357H1298.49L1222.99 516.18L1298.49 660.004Z" fill="url(#paint46_linear_46_1277)"/>
<path d="M1454.13 668.844H1293.85L1293.55 668.28L1213.71 516.176L1214 515.613L1293.85 363.509H1454.13L1454.43 364.073L1534.27 516.176L1533.97 516.74L1454.13 668.844ZM1295.03 666.589H1452.94L1531.9 516.176L1452.94 365.764H1295.03L1216.07 516.176L1295.03 666.589Z" fill="url(#paint47_linear_46_1277)"/>
<path d="M1457.59 675.434H1290.39L1290.09 674.871L1206.79 516.178L1207.09 515.615L1290.39 356.922H1457.59L1457.88 357.486L1541.19 516.178L1540.89 516.742L1457.59 675.434H1457.59ZM1291.57 673.18H1456.4L1538.82 516.178L1456.4 359.177H1291.57L1209.16 516.178L1291.57 673.18Z" fill="url(#paint48_linear_46_1277)"/>
<path d="M1461.04 682.022H1286.93L1286.63 681.459L1199.87 516.177L1200.17 515.614L1286.93 350.333H1461.05L1461.34 350.896L1548.1 516.177L1547.81 516.741L1461.04 682.022ZM1288.11 679.768H1459.86L1545.74 516.177L1459.86 352.587H1288.11L1202.24 516.177L1288.11 679.768Z" fill="url(#paint49_linear_46_1277)"/>
<path d="M1464.5 688.611H1283.47L1283.18 688.047L1192.95 516.177L1193.25 515.614L1283.47 343.744H1464.51L1464.8 344.307L1555.02 516.177L1554.72 516.741L1464.5 688.611ZM1284.65 686.357H1463.32L1552.65 516.177L1463.32 345.998H1284.65L1195.32 516.177L1284.65 686.357Z" fill="url(#paint50_linear_46_1277)"/>
<path d="M1467.96 695.201H1280.01L1279.72 694.637L1186.04 516.178L1186.33 515.615L1280.01 337.156H1467.97L1468.26 337.719L1561.94 516.178L1561.64 516.742L1467.96 695.201ZM1281.19 692.946H1466.78L1559.57 516.178L1466.78 339.41H1281.19L1188.4 516.178L1281.19 692.946Z" fill="url(#paint51_linear_46_1277)"/>
<path d="M1471.42 701.789H1276.55L1276.26 701.225L1179.12 516.178L1179.42 515.614L1276.56 330.566H1471.42L1471.72 331.13L1568.86 516.178L1568.56 516.741L1471.42 701.789ZM1277.74 699.535H1470.24L1566.49 516.178L1470.24 332.821H1277.74L1181.49 516.178L1277.74 699.535Z" fill="url(#paint52_linear_46_1277)"/>
<path d="M1474.88 708.378H1273.1L1272.8 707.814L1172.2 516.178L1172.5 515.614L1273.1 323.978H1474.88L1475.18 324.541L1575.77 516.178L1575.48 516.741L1474.88 708.378H1474.88ZM1274.28 706.123H1473.7L1573.41 516.178L1473.7 326.232H1274.28L1174.57 516.178L1274.28 706.123Z" fill="url(#paint53_linear_46_1277)"/>
<path d="M1478.34 714.967H1269.64L1269.34 714.403L1165.29 516.178L1165.58 515.615L1269.64 317.389H1478.34L1478.64 317.953L1582.69 516.178L1582.39 516.742L1478.34 714.967ZM1270.82 712.713H1477.16L1580.32 516.178L1477.16 319.644H1270.82L1167.65 516.178L1270.82 712.713Z" fill="url(#paint54_linear_46_1277)"/>
<path d="M1481.8 721.555H1266.18L1265.88 720.992L1158.37 516.178L1158.67 515.614L1266.18 310.8H1481.8L1482.09 311.363L1589.61 516.178L1589.31 516.741L1481.8 721.555ZM1267.36 719.301H1480.62L1587.24 516.178L1480.62 313.054H1267.36L1160.73 516.178L1267.36 719.301Z" fill="url(#paint55_linear_46_1277)"/>
<path d="M1485.26 728.144H1262.72L1262.42 727.581L1151.45 516.178L1151.75 515.614L1262.72 304.211H1485.26L1485.55 304.775L1596.53 516.178L1596.23 516.741L1485.26 728.144ZM1263.9 725.89H1484.07L1594.16 516.178L1484.07 306.465H1263.9L1153.82 516.178L1263.9 725.89Z" fill="url(#paint56_linear_46_1277)"/>
<path d="M1488.71 734.733H1259.26L1258.96 734.169L1144.53 516.177L1144.83 515.614L1259.26 297.622H1488.72L1489.01 298.186L1603.44 516.177L1603.15 516.741L1488.71 734.733ZM1260.44 732.478H1487.53L1601.07 516.177L1487.53 299.877H1260.44L1146.9 516.177L1260.44 732.478Z" fill="url(#paint57_linear_46_1277)"/>
<path d="M1492.17 741.321H1255.8L1255.51 740.758L1137.62 516.177L1137.91 515.613L1255.8 291.033H1492.18L1492.47 291.596L1610.36 516.177L1610.06 516.741L1492.17 741.321ZM1256.98 739.067H1490.99L1607.99 516.177L1490.99 293.287H1256.98L1139.98 516.177L1256.98 739.067Z" fill="url(#paint58_linear_46_1277)"/>
<path d="M1495.63 747.911H1252.34L1252.05 747.347L1130.7 516.178L1131 515.614L1252.35 284.445H1495.64L1495.93 285.008L1617.28 516.178L1616.98 516.741L1495.64 747.911H1495.63ZM1253.53 745.656H1494.45L1614.91 516.178L1494.45 286.699H1253.53L1133.07 516.178L1253.53 745.656Z" fill="url(#paint59_linear_46_1277)"/>
<path d="M1499.09 754.499H1248.88L1248.59 753.936L1123.78 516.177L1124.08 515.614L1248.89 277.855H1499.09L1499.39 278.419L1624.2 516.177L1623.9 516.741L1499.09 754.499ZM1250.07 752.245H1497.91L1621.83 516.177L1497.91 280.11H1250.07L1126.15 516.177L1250.07 752.245Z" fill="url(#paint60_linear_46_1277)"/>
<path d="M1502.55 761.088H1245.42L1245.13 760.524L1116.86 516.177L1117.16 515.614L1245.43 271.267H1502.55L1502.85 271.83L1631.11 516.177L1630.81 516.741L1502.55 761.088ZM1246.61 758.833H1501.37L1628.75 516.177L1501.37 273.521H1246.61L1119.23 516.177L1246.61 758.833Z" fill="url(#paint61_linear_46_1277)"/>
<path d="M1506.01 767.677H1241.97L1241.67 767.114L1109.95 516.178L1110.24 515.614L1241.97 264.678H1506.01L1506.3 265.242L1638.03 516.178L1637.73 516.741L1506.01 767.677ZM1243.15 765.423H1504.82L1635.66 516.178L1504.82 266.933H1243.15L1112.31 516.178L1243.15 765.423Z" fill="url(#paint62_linear_46_1277)"/>
<path d="M1509.47 774.266H1238.51L1238.21 773.702L1103.03 516.178L1103.33 515.614L1238.51 258.089H1509.47L1509.76 258.653L1644.95 516.178L1644.65 516.741L1509.47 774.266ZM1239.69 772.011H1508.28L1642.58 516.178L1508.28 260.344H1239.69L1105.4 516.178L1239.69 772.011Z" fill="url(#paint63_linear_46_1277)"/>
<path d="M1512.93 780.853H1235.05L1234.76 780.29L1096.11 516.176L1096.41 515.613L1235.05 251.499H1512.93L1513.22 252.063L1651.87 516.176L1651.57 516.74L1512.93 780.853ZM1236.23 778.599H1511.74L1649.5 516.176L1511.74 253.754H1236.23L1098.48 516.176L1236.23 778.599Z" fill="url(#paint64_linear_46_1277)"/>
<path d="M1516.38 787.444H1231.59L1231.3 786.88L1089.19 516.178L1089.49 515.614L1231.59 244.912H1516.39L1516.68 245.476L1658.78 516.178L1658.49 516.742L1516.38 787.444ZM1232.77 785.189H1515.2L1656.41 516.178L1515.2 247.167H1232.77L1091.56 516.178L1232.77 785.189Z" fill="url(#paint65_linear_46_1277)"/>
<path d="M1519.84 794.032H1228.13L1227.84 793.469L1082.28 516.178L1082.58 515.614L1228.13 238.323H1519.85L1520.14 238.886L1665.7 516.178L1665.4 516.741L1519.84 794.032ZM1229.32 791.778H1518.66L1663.33 516.178L1518.66 240.577H1229.32L1084.64 516.178L1229.32 791.778Z" fill="url(#paint66_linear_46_1277)"/>
<path d="M1955.63 517.305H1809.19L1808.89 516.742L1735.96 377.813L1736.26 377.249L1809.19 238.32H1955.64L1955.93 238.884L2028.86 377.813L2028.56 378.376L1955.63 517.305ZM1810.37 515.051H1954.45L2026.49 377.813L1954.45 240.575H1810.37L1738.33 377.813L1810.37 515.051Z" fill="url(#paint67_linear_46_1277)"/>
<path d="M1959.09 523.895H1805.73L1805.44 523.331L1729.05 377.817L1729.35 377.253L1805.73 231.738H1959.1L1959.39 232.302L2035.78 377.817L2035.48 378.38L1959.09 523.895ZM1806.91 521.641H1957.91L2033.41 377.817L1957.91 233.993H1806.91L1731.42 377.817L1806.91 521.641Z" fill="url(#paint68_linear_46_1277)"/>
<path d="M1962.55 530.483H1802.27L1801.98 529.919L1722.13 377.816L1722.43 377.252L1802.27 225.148H1962.55L1962.85 225.712L2042.7 377.816L2042.4 378.379L1962.55 530.483ZM1803.45 528.228H1961.37L2040.33 377.816L1961.37 227.403H1803.45L1724.5 377.816L1803.45 528.228Z" fill="url(#paint69_linear_46_1277)"/>
<path d="M1966.01 537.073H1798.81L1798.52 536.509L1715.21 377.817L1715.51 377.253L1798.81 218.561H1966.01L1966.31 219.124L2049.61 377.817L2049.31 378.38L1966.01 537.073ZM1800 534.818H1964.83L2047.24 377.817L1964.83 220.815H1800L1717.58 377.817L1800 534.818Z" fill="url(#paint70_linear_46_1277)"/>
<path d="M1969.47 543.661H1795.35L1795.06 543.098L1708.3 377.817L1708.6 377.253L1795.36 211.972H1969.47L1969.77 212.535L2056.53 377.817L2056.23 378.38L1969.47 543.661ZM1796.54 541.407H1968.29L2054.16 377.817L1968.29 214.226H1796.54L1710.66 377.817L1796.54 541.407Z" fill="url(#paint71_linear_46_1277)"/>
<path d="M1972.93 550.25H1791.9L1791.6 549.686L1701.38 377.816L1701.68 377.252L1791.9 205.382H1972.93L1973.23 205.946L2063.45 377.816L2063.15 378.38L1972.93 550.25ZM1793.08 547.995H1971.74L2061.08 377.816L1971.74 207.637H1793.08L1703.74 377.816L1793.08 547.995Z" fill="url(#paint72_linear_46_1277)"/>
<path d="M1976.39 556.839H1788.43L1788.14 556.276L1694.46 377.817L1694.76 377.253L1788.44 198.794H1976.39L1976.68 199.358L2070.36 377.817L2070.07 378.381L1976.39 556.839ZM1789.62 554.585H1975.2L2067.99 377.817L1975.2 201.049H1789.62L1696.83 377.817L1789.62 554.585Z" fill="url(#paint73_linear_46_1277)"/>
<path d="M1979.84 563.428H1784.98L1784.68 562.865L1687.54 377.817L1687.84 377.253L1784.98 192.206H1979.85L1980.14 192.769L2077.28 377.817L2076.98 378.38L1979.84 563.428ZM1786.16 561.174H1978.66L2074.91 377.817L1978.66 194.46H1786.16L1689.91 377.817L1786.16 561.174Z" fill="url(#paint74_linear_46_1277)"/>
<path d="M1983.3 570.016H1781.52L1781.22 569.452L1680.63 377.816L1680.92 377.252L1781.52 185.616H1983.31L1983.6 186.179L2084.2 377.816L2083.9 378.379L1983.3 570.016ZM1782.7 567.761H1982.12L2081.83 377.816L1982.12 187.87H1782.7L1682.99 377.816L1782.7 567.761Z" fill="url(#paint75_linear_46_1277)"/>
<path d="M1986.76 576.605H1778.06L1777.76 576.042L1673.71 377.816L1674.01 377.253L1778.06 179.027H1986.77L1987.06 179.591L2091.12 377.816L2090.82 378.38L1986.76 576.605ZM1779.24 574.351H1985.58L2088.75 377.816L1985.58 181.282H1779.24L1676.07 377.816L1779.24 574.351Z" fill="url(#paint76_linear_46_1277)"/>
<path d="M1990.22 583.194H1774.6L1774.31 582.63L1666.79 377.816L1667.09 377.253L1774.61 172.438H1990.22L1990.52 173.002L2098.03 377.816L2097.74 378.38L1990.22 583.194ZM1775.78 580.939H1989.04L2095.67 377.816L1989.04 174.693H1775.78L1669.16 377.816L1775.78 580.939Z" fill="url(#paint77_linear_46_1277)"/>
<path d="M1993.68 589.782H1771.14L1770.85 589.219L1659.87 377.816L1660.17 377.252L1771.14 165.849H1993.68L1993.98 166.413L2104.95 377.816L2104.65 378.379L1993.68 589.782ZM1772.32 587.528H1992.5L2102.58 377.816L1992.5 168.104H1772.32L1662.24 377.816L1772.32 587.528Z" fill="url(#paint78_linear_46_1277)"/>
<path d="M1997.14 596.372H1767.68L1767.39 595.808L1652.96 377.816L1653.25 377.252L1767.68 159.261H1997.14L1997.44 159.824L2111.87 377.816L2111.57 378.38L1997.14 596.372ZM1768.87 594.117H1995.96L2109.5 377.816L1995.96 161.515H1768.87L1655.33 377.816L1768.87 594.117Z" fill="url(#paint79_linear_46_1277)"/>
<path d="M2000.6 602.961H1764.23L1763.93 602.398L1646.04 377.817L1646.34 377.253L1764.23 152.673H2000.6L2000.89 153.236L2118.79 377.817L2118.49 378.381L2000.6 602.961ZM1765.41 600.707H1999.42L2116.42 377.817L1999.42 154.927H1765.41L1648.41 377.817L1765.41 600.707Z" fill="url(#paint80_linear_46_1277)"/>
<path d="M2004.06 609.549H1760.77L1760.47 608.985L1639.12 377.816L1639.42 377.252L1760.77 146.083H2004.06L2004.35 146.647L2125.7 377.816L2125.41 378.38L2004.06 609.549ZM1761.95 607.294H2002.87L2123.33 377.816L2002.87 148.338H1761.95L1641.49 377.816L1761.95 607.294Z" fill="url(#paint81_linear_46_1277)"/>
<path d="M2007.52 616.138H1757.31L1757.01 615.574L1632.21 377.816L1632.5 377.252L1757.31 139.494H2007.52L2007.81 140.058L2132.62 377.816L2132.32 378.38L2007.52 616.138ZM1758.49 613.883H2006.33L2130.25 377.816L2006.33 141.749H1758.49L1634.57 377.816L1758.49 613.883Z" fill="url(#paint82_linear_46_1277)"/>
<path d="M2010.97 622.727H1753.85L1753.55 622.163L1625.29 377.816L1625.58 377.252L1753.85 132.905H2010.98L2011.27 133.469L2139.54 377.816L2139.24 378.38L2010.97 622.727ZM1755.03 620.472H2009.79L2137.17 377.816L2009.79 135.16H1755.03L1627.65 377.816L1755.03 620.472Z" fill="url(#paint83_linear_46_1277)"/>
<path d="M2014.43 629.316H1750.39L1750.1 628.752L1618.37 377.816L1618.67 377.253L1750.39 126.317H2014.44L2014.73 126.881L2146.46 377.816L2146.16 378.38L2014.43 629.316ZM1751.57 627.061H2013.25L2144.09 377.816L2013.25 128.571H1751.57L1620.73 377.816L1751.57 627.061Z" fill="url(#paint84_linear_46_1277)"/>
<path d="M2017.89 635.905H1746.93L1746.64 635.341L1611.45 377.816L1611.75 377.253L1746.93 119.728H2017.89L2018.19 120.292L2153.37 377.816L2153.07 378.38L2017.89 635.905ZM1748.12 633.65H2016.71L2151 377.816L2016.71 121.983H1748.12L1613.82 377.816L1748.12 633.65Z" fill="url(#paint85_linear_46_1277)"/>
<path d="M2021.35 642.494H1743.47L1743.18 641.93L1604.54 377.816L1604.83 377.253L1743.48 113.139H2021.35L2021.65 113.703L2160.29 377.816L2159.99 378.38L2021.35 642.494ZM1744.66 640.239H2020.17L2157.92 377.816L2020.17 115.394H1744.66L1606.9 377.816L1744.66 640.239Z" fill="url(#paint86_linear_46_1277)"/>
<path d="M2024.81 649.083H1740.01L1739.72 648.519L1597.62 377.817L1597.91 377.254L1740.02 106.551H2024.81L2025.11 107.115L2167.21 377.817L2166.91 378.381L2024.81 649.083H2024.81ZM1741.2 646.829H2023.62L2164.84 377.817L2023.62 108.806H1741.2L1599.98 377.817L1741.2 646.829Z" fill="url(#paint87_linear_46_1277)"/>
<path d="M2028.27 655.671H1736.56L1736.26 655.107L1590.7 377.816L1591 377.253L1736.56 99.9614H2028.27L2028.56 100.525L2174.12 377.816L2173.83 378.38L2028.27 655.671ZM1737.74 653.416H2027.08L2171.76 377.816L2027.08 102.216H1737.74L1593.07 377.816L1737.74 653.416Z" fill="url(#paint88_linear_46_1277)"/>
<path d="M1665.11 240.579H1518.66L1518.37 240.015L1445.44 101.086L1445.73 100.523L1518.66 -38.4033H1665.11L1665.41 -37.8397L1738.33 101.086L1738.04 101.65L1665.11 240.579ZM1519.84 238.324H1663.92L1735.97 101.086L1663.92 -36.1488H1519.84L1447.8 101.086L1519.84 238.324Z" fill="url(#paint89_linear_46_1277)"/>
<path d="M1668.56 247.167H1515.2L1514.91 246.603L1438.52 101.086L1438.82 100.522L1515.2 -44.9927H1668.57L1668.86 -44.429L1745.25 101.086L1744.95 101.649L1668.56 247.167ZM1516.38 244.912H1667.38L1742.88 101.086L1667.38 -42.7382H1516.38L1440.89 101.086L1516.38 244.912Z" fill="url(#paint90_linear_46_1277)"/>
<path d="M1672.02 253.755H1511.74L1511.45 253.192L1431.6 101.088L1431.9 100.525L1511.74 -51.5791H1672.03L1672.32 -51.0155L1752.17 101.088L1751.87 101.652L1672.02 253.755ZM1512.93 251.501H1670.84L1749.8 101.088L1670.84 -49.3246H1512.93L1433.97 101.088L1512.93 251.501Z" fill="url(#paint91_linear_46_1277)"/>
<path d="M1675.48 260.345H1508.28L1507.99 259.781L1424.69 101.089L1424.98 100.525L1508.29 -58.167H1675.49L1675.78 -57.6034L1759.09 101.089L1758.79 101.653L1675.49 260.345H1675.48ZM1509.47 258.091H1674.3L1756.72 101.089L1674.3 -55.9125H1509.47L1427.05 101.089L1509.47 258.091Z" fill="url(#paint92_linear_46_1277)"/>
<path d="M1678.94 266.933H1504.83L1504.53 266.37L1417.77 101.089L1418.07 100.525L1504.83 -64.7563H1678.94L1679.24 -64.1927L1766 101.089L1765.7 101.652L1678.94 266.933ZM1506.01 264.679H1677.76L1763.63 101.089L1677.76 -62.5018H1506.01L1420.13 101.089L1506.01 264.679Z" fill="url(#paint93_linear_46_1277)"/>
<path d="M1682.4 273.522H1501.37L1501.07 272.959L1410.85 101.088L1411.15 100.525L1501.37 -71.3452H1682.4L1682.7 -70.7816L1772.92 101.088L1772.62 101.652L1682.4 273.522ZM1502.55 271.268H1681.22L1770.55 101.088L1681.22 -69.0907H1502.55L1413.22 101.088L1502.55 271.268Z" fill="url(#paint94_linear_46_1277)"/>
<path d="M1685.86 280.111H1497.91L1497.61 279.548L1403.93 101.089L1404.23 100.525L1497.91 -77.9336H1685.86L1686.16 -77.37L1779.84 101.089L1779.54 101.653L1685.86 280.111ZM1499.09 277.857H1684.68L1777.47 101.089L1684.68 -75.6791H1499.09L1406.3 101.089L1499.09 277.857Z" fill="url(#paint95_linear_46_1277)"/>
<path d="M1689.32 286.7H1494.45L1494.15 286.137L1397.02 101.089L1397.31 100.525L1494.45 -84.5225H1689.32L1689.61 -83.9588L1786.75 101.089L1786.46 101.652L1689.32 286.7ZM1495.63 284.446H1688.14L1784.39 101.089L1688.14 -82.2679H1495.63L1399.38 101.089L1495.63 284.446Z" fill="url(#paint96_linear_46_1277)"/>
<path d="M1692.78 293.288H1490.99L1490.7 292.724L1390.1 101.088L1390.39 100.524L1490.99 -91.1123H1692.78L1693.07 -90.5487L1793.67 101.088L1793.37 101.651L1692.78 293.288H1692.78ZM1492.17 291.033H1691.59L1791.3 101.088L1691.59 -88.8578H1492.17L1392.46 101.088L1492.17 291.033Z" fill="url(#paint97_linear_46_1277)"/>
<path d="M1696.23 299.878H1487.53L1487.24 299.315L1383.18 101.089L1383.48 100.526L1487.53 -97.6997H1696.23L1696.53 -97.1361L1800.58 101.089L1800.29 101.653L1696.23 299.878H1696.23ZM1488.71 297.624H1695.05L1798.22 101.089L1695.05 -95.4452H1488.71L1385.55 101.089L1488.71 297.624Z" fill="url(#paint98_linear_46_1277)"/>
<path d="M1699.69 306.466H1484.07L1483.78 305.902L1376.27 101.088L1376.56 100.525L1484.08 -104.29H1699.7L1699.99 -103.726L1807.5 101.088L1807.21 101.652L1699.69 306.466ZM1485.26 304.211H1698.51L1805.14 101.088L1698.51 -102.035H1485.26L1378.63 101.088L1485.26 304.211Z" fill="url(#paint99_linear_46_1277)"/>
<path d="M1703.15 313.055H1480.62L1480.32 312.492L1369.35 101.089L1369.64 100.525L1480.62 -110.878H1703.16L1703.45 -110.314L1814.42 101.089L1814.13 101.652L1703.15 313.055ZM1481.8 310.801H1701.97L1812.05 101.089L1701.97 -108.623H1481.8L1371.71 101.089L1481.8 310.801Z" fill="url(#paint100_linear_46_1277)"/>
<path d="M1706.61 319.644H1477.16L1476.86 319.08L1362.43 101.089L1362.73 100.525L1477.16 -117.467H1706.61L1706.91 -116.903L1821.34 101.089L1821.04 101.652L1706.61 319.644ZM1478.34 317.389H1705.43L1818.97 101.089L1705.43 -115.212H1478.34L1364.8 101.089L1478.34 317.389Z" fill="url(#paint101_linear_46_1277)"/>
<path d="M1710.07 326.233H1473.7L1473.4 325.67L1355.51 101.089L1355.81 100.525L1473.7 -124.055H1710.07L1710.37 -123.492L1828.26 101.089L1827.96 101.653L1710.07 326.233ZM1474.88 323.979H1708.89L1825.89 101.089L1708.89 -121.801H1474.88L1357.88 101.089L1474.88 323.979Z" fill="url(#paint102_linear_46_1277)"/>
<path d="M1713.53 332.822H1470.24L1469.94 332.258L1348.59 101.089L1348.89 100.525L1470.24 -130.644H1713.53L1713.82 -130.08L1835.17 101.089L1834.88 101.653L1713.53 332.822H1713.53ZM1471.42 330.567H1712.34L1832.81 101.089L1712.34 -128.39H1471.42L1350.96 101.089L1471.42 330.567Z" fill="url(#paint103_linear_46_1277)"/>
<path d="M1716.99 339.411H1466.78L1466.48 338.847L1341.68 101.089L1341.97 100.525L1466.78 -137.233H1716.99L1717.28 -136.669L1842.09 101.089L1841.79 101.653L1716.99 339.411ZM1467.96 337.156H1715.8L1839.72 101.089L1715.8 -134.978H1467.96L1344.04 101.089L1467.96 337.156Z" fill="url(#paint104_linear_46_1277)"/>
<path d="M1720.45 345.999H1463.32L1463.03 345.435L1334.76 101.088L1335.06 100.525L1463.32 -143.822H1720.45L1720.74 -143.259L1849.01 101.088L1848.71 101.652L1720.45 345.999ZM1464.5 343.745H1719.26L1846.64 101.088L1719.26 -141.568H1464.5L1337.12 101.088L1464.5 343.745Z" fill="url(#paint105_linear_46_1277)"/>
<path d="M1723.9 352.588H1459.86L1459.57 352.025L1327.84 101.089L1328.14 100.525L1459.87 -150.411H1723.91L1724.2 -149.847L1855.93 101.089L1855.63 101.653L1723.9 352.588ZM1461.04 350.334H1722.72L1853.56 101.089L1722.72 -148.156H1461.04L1330.21 101.089L1461.04 350.334Z" fill="url(#paint106_linear_46_1277)"/>
<path d="M1727.36 359.177H1456.4L1456.11 358.613L1320.92 101.089L1321.22 100.525L1456.4 -157H1727.36L1727.66 -156.436L1862.84 101.089L1862.55 101.652L1727.36 359.177ZM1457.59 356.923H1726.18L1860.48 101.089L1726.18 -154.745H1457.59L1323.29 101.089L1457.59 356.923Z" fill="url(#paint107_linear_46_1277)"/>
<path d="M1730.82 365.766H1452.95L1452.65 365.202L1314.01 101.089L1314.3 100.525L1452.95 -163.588H1730.82L1731.12 -163.025L1869.76 101.089L1869.46 101.652L1730.82 365.766ZM1454.13 363.511H1729.64L1867.39 101.089L1729.64 -161.334H1454.13L1316.37 101.089L1454.13 363.511Z" fill="url(#paint108_linear_46_1277)"/>
<path d="M1734.28 372.355H1449.49L1449.19 371.791L1307.09 101.089L1307.39 100.525L1449.49 -170.177H1734.28L1734.58 -169.614L1876.68 101.089L1876.38 101.652L1734.28 372.355H1734.28ZM1450.67 370.1H1733.1L1874.31 101.089L1733.1 -167.923H1450.67L1309.46 101.089L1450.67 370.1Z" fill="url(#paint109_linear_46_1277)"/>
<path d="M1737.74 378.943H1446.03L1445.73 378.38L1300.17 101.089L1300.47 100.525L1446.03 -176.766H1737.74L1738.04 -176.202L1883.6 101.089L1883.3 101.652L1737.74 378.943H1737.74ZM1447.21 376.689H1736.56L1881.23 101.089L1736.56 -174.512H1447.21L1302.54 101.089L1447.21 376.689Z" fill="url(#paint110_linear_46_1277)"/>
<path d="M1893.38 952.161H1726.18L1725.88 951.597L1642.58 792.905L1642.88 792.341L1726.18 633.649H1893.38L1893.68 634.213L1976.98 792.905L1976.68 793.469L1893.38 952.161H1893.38ZM1727.36 949.907H1892.19L1974.61 792.905L1892.19 635.903H1727.36L1644.95 792.905L1727.36 949.907Z" fill="url(#paint111_linear_46_1277)"/>
<path d="M1896.84 958.75H1722.72L1722.42 958.187L1635.66 792.905L1635.96 792.342L1722.72 627.061H1896.84L1897.13 627.624L1983.9 792.905L1983.6 793.469L1896.84 958.75ZM1723.91 956.496H1895.66L1981.53 792.905L1895.66 629.315H1723.91L1638.03 792.905L1723.91 956.496Z" fill="url(#paint112_linear_46_1277)"/>
<path d="M1900.3 965.339H1719.26L1718.97 964.775L1628.75 792.905L1629.04 792.342L1719.26 620.472H1900.3L1900.59 621.035L1990.81 792.905L1990.52 793.469L1900.3 965.339ZM1720.45 963.085H1899.11L1988.45 792.905L1899.11 622.726H1720.45L1631.11 792.905L1720.45 963.085Z" fill="url(#paint113_linear_46_1277)"/>
<path d="M1903.75 971.928H1715.8L1715.51 971.364L1621.83 792.905L1622.13 792.342L1715.81 613.883H1903.76L1904.05 614.446L1997.73 792.905L1997.43 793.469L1903.75 971.928ZM1716.99 969.673H1902.57L1995.36 792.905L1902.57 616.137H1716.99L1624.2 792.905L1716.99 969.673Z" fill="url(#paint114_linear_46_1277)"/>
<path d="M1907.21 978.518H1712.35L1712.05 977.954L1614.91 792.906L1615.21 792.343L1712.35 607.295H1907.22L1907.51 607.859L2004.65 792.906L2004.35 793.47L1907.21 978.518ZM1713.53 976.263H1906.03L2002.28 792.906L1906.03 609.549H1713.53L1617.28 792.906L1713.53 976.263Z" fill="url(#paint115_linear_46_1277)"/>
<path d="M1910.67 985.106H1708.89L1708.59 984.542L1607.99 792.906L1608.29 792.342L1708.89 600.706H1910.68L1910.97 601.269L2011.57 792.906L2011.27 793.469L1910.67 985.106ZM1710.07 982.851H1909.49L2009.2 792.906L1909.49 602.96H1710.07L1610.36 792.906L1710.07 982.851Z" fill="url(#paint116_linear_46_1277)"/>
<path d="M1914.13 991.695H1705.43L1705.13 991.131L1601.07 792.906L1601.37 792.342L1705.43 594.117H1914.13L1914.42 594.68L2018.48 792.906L2018.18 793.469L1914.13 991.695H1914.13ZM1706.61 989.44H1912.95L2016.12 792.906L1912.95 596.371H1706.61L1603.44 792.906L1706.61 989.44Z" fill="url(#paint117_linear_46_1277)"/>
<path d="M1917.59 998.283H1701.97L1701.67 997.719L1594.16 792.905L1594.46 792.341L1701.97 587.527H1917.59L1917.89 588.091L2025.4 792.905L2025.1 793.469L1917.59 998.283ZM1703.15 996.028H1916.41L2023.04 792.905L1916.41 589.782H1703.15L1596.53 792.905L1703.15 996.028Z" fill="url(#paint118_linear_46_1277)"/>
<path d="M1921.05 1004.87H1698.51L1698.22 1004.31L1587.24 792.906L1587.54 792.342L1698.51 580.939H1921.05L1921.35 581.503L2032.32 792.906L2032.02 793.469L1921.05 1004.87ZM1699.69 1002.62H1919.86L2029.95 792.906L1919.86 583.193H1699.69L1589.61 792.906L1699.69 1002.62Z" fill="url(#paint119_linear_46_1277)"/>
<path d="M1924.51 1011.46H1695.05L1694.76 1010.9L1580.32 792.905L1580.62 792.342L1695.05 574.35H1924.51L1924.8 574.914L2039.24 792.905L2038.94 793.469L1924.51 1011.46ZM1696.23 1009.21H1923.32L2036.87 792.905L1923.32 576.605H1696.23L1582.69 792.905L1696.23 1009.21Z" fill="url(#paint120_linear_46_1277)"/>
<path d="M1927.97 1018.05H1691.59L1691.3 1017.49L1573.41 792.906L1573.71 792.342L1691.6 567.762H1927.97L1928.26 568.325L2046.15 792.906L2045.86 793.47L1927.97 1018.05ZM1692.78 1015.8H1926.78L2043.78 792.906L1926.78 570.016H1692.78L1575.77 792.906L1692.78 1015.8Z" fill="url(#paint121_linear_46_1277)"/>
<path d="M1931.43 1024.64H1688.14L1687.84 1024.08L1566.49 792.906L1566.79 792.342L1688.14 561.173H1931.43L1931.72 561.736L2053.07 792.906L2052.77 793.469L1931.42 1024.64H1931.43ZM1689.32 1022.38H1930.24L2050.7 792.906L1930.24 563.427H1689.32L1568.86 792.906L1689.32 1022.38Z" fill="url(#paint122_linear_46_1277)"/>
<path d="M1934.88 1031.23H1684.67L1684.38 1030.66L1559.57 792.906L1559.87 792.343L1684.68 554.584H1934.88L1935.18 555.148L2059.99 792.906L2059.69 793.47L1934.88 1031.23ZM1685.86 1028.97H1933.7L2057.62 792.906L1933.7 556.839H1685.86L1561.94 792.906L1685.86 1028.97Z" fill="url(#paint123_linear_46_1277)"/>
<path d="M1938.34 1037.82H1681.22L1680.92 1037.25L1552.66 792.906L1552.95 792.342L1681.22 547.995H1938.34L1938.64 548.559L2066.9 792.906L2066.61 793.469L1938.34 1037.82ZM1682.4 1035.56H1937.16L2064.54 792.906L1937.16 550.25H1682.4L1555.02 792.906L1682.4 1035.56Z" fill="url(#paint124_linear_46_1277)"/>
<path d="M1941.8 1044.4H1677.76L1677.46 1043.84L1545.74 792.905L1546.04 792.342L1677.76 541.406H1941.8L1942.1 541.969L2073.82 792.905L2073.53 793.469L1941.8 1044.4ZM1678.94 1042.15H1940.62L2071.46 792.905L1940.62 543.66H1678.94L1548.1 792.905L1678.94 1042.15Z" fill="url(#paint125_linear_46_1277)"/>
<path d="M1945.26 1050.99H1674.3L1674 1050.43L1538.82 792.907L1539.12 792.343L1674.3 534.818H1945.26L1945.56 535.382L2080.74 792.907L2080.44 793.47L1945.26 1050.99ZM1675.48 1048.74H1944.08L2078.37 792.907L1944.08 537.073H1675.48L1541.19 792.907L1675.48 1048.74Z" fill="url(#paint126_linear_46_1277)"/>
<path d="M1948.72 1057.58H1670.84L1670.55 1057.02L1531.9 792.906L1532.2 792.343L1670.85 528.229H1948.72L1949.02 528.793L2087.66 792.906L2087.36 793.47L1948.72 1057.58ZM1672.02 1055.33H1947.53L2085.29 792.906L1947.53 530.484H1672.02L1534.27 792.906L1672.02 1055.33Z" fill="url(#paint127_linear_46_1277)"/>
<path d="M1952.18 1064.17H1667.38L1667.09 1063.61L1524.99 792.906L1525.28 792.342L1667.38 521.64H1952.18L1952.47 522.203L2094.57 792.906L2094.28 793.469L1952.18 1064.17ZM1668.56 1061.92H1950.99L2092.2 792.906L1950.99 523.894H1668.56L1527.35 792.906L1668.56 1061.92Z" fill="url(#paint128_linear_46_1277)"/>
<path d="M1955.63 1070.76H1663.92L1663.63 1070.2L1518.07 792.906L1518.37 792.342L1663.92 515.051H1955.64L1955.93 515.614L2101.49 792.906L2101.19 793.469L1955.63 1070.76ZM1665.11 1068.51H1954.45L2099.13 792.906L1954.45 517.305H1665.11L1520.44 792.906L1665.11 1068.51Z" fill="url(#paint129_linear_46_1277)"/>
<path d="M1592.47 655.669H1446.03L1445.73 655.105L1372.8 516.179L1373.1 515.616L1446.03 376.687H1592.48L1592.77 377.251L1665.7 516.179L1665.4 516.743L1592.47 655.669ZM1447.21 653.415H1591.29L1663.33 516.179L1591.29 378.942H1447.21L1375.17 516.179L1447.21 653.415Z" fill="url(#paint130_linear_46_1277)"/>
<path d="M1595.93 662.259H1442.57L1442.28 661.695L1365.89 516.18L1366.19 515.617L1442.57 370.099H1595.94L1596.23 370.663L1672.62 516.18L1672.32 516.744L1595.93 662.259ZM1443.75 660.004H1594.75L1670.25 516.18L1594.75 372.354H1443.75L1368.25 516.18L1443.75 660.004Z" fill="url(#paint131_linear_46_1277)"/>
<path d="M1599.39 668.846H1439.11L1438.82 668.282L1358.97 516.178L1359.27 515.615L1439.11 363.508H1599.4L1599.69 364.072L1679.54 516.178L1679.24 516.742L1599.39 668.846ZM1440.29 666.591H1598.21L1677.17 516.178L1598.21 365.763H1440.29L1361.34 516.178L1440.29 666.591Z" fill="url(#paint132_linear_46_1277)"/>
<path d="M1602.85 675.434H1435.65L1435.36 674.87L1352.05 516.178L1352.35 515.614L1435.65 356.919H1602.85L1603.15 357.483L1686.45 516.178L1686.16 516.741L1602.85 675.434H1602.85ZM1436.84 673.179H1601.67L1684.08 516.178L1601.67 359.173H1436.84L1354.42 516.178L1436.84 673.179Z" fill="url(#paint133_linear_46_1277)"/>
<path d="M1606.31 682.022H1432.19L1431.9 681.459L1345.13 516.177L1345.43 515.614L1432.19 350.333H1606.31L1606.61 350.896L1693.37 516.177L1693.07 516.741L1606.31 682.022ZM1433.38 679.768H1605.13L1691 516.177L1605.13 352.587H1433.38L1347.5 516.177L1433.38 679.768Z" fill="url(#paint134_linear_46_1277)"/>
<path d="M1609.77 688.611H1428.73L1428.44 688.047L1338.22 516.177L1338.52 515.614L1428.74 343.744H1609.77L1610.06 344.307L1700.29 516.177L1699.99 516.741L1609.77 688.611ZM1429.92 686.357H1608.58L1697.92 516.177L1608.58 345.998H1429.92L1340.58 516.177L1429.92 686.357Z" fill="url(#paint135_linear_46_1277)"/>
<path d="M1613.23 695.201H1425.28L1424.98 694.637L1331.3 516.178L1331.6 515.615L1425.28 337.156H1613.23L1613.52 337.719L1707.2 516.178L1706.91 516.742L1613.23 695.201ZM1426.46 692.946H1612.04L1704.84 516.178L1612.04 339.41H1426.46L1333.67 516.178L1426.46 692.946Z" fill="url(#paint136_linear_46_1277)"/>
<path d="M1616.69 701.789H1421.82L1421.52 701.225L1324.38 516.178L1324.68 515.614L1421.82 330.566H1616.69L1616.98 331.13L1714.12 516.178L1713.83 516.741L1616.69 701.789ZM1423 699.535H1615.5L1711.75 516.178L1615.5 332.821H1423L1326.75 516.178L1423 699.535Z" fill="url(#paint137_linear_46_1277)"/>
<path d="M1620.15 708.378H1418.36L1418.06 707.814L1317.47 516.178L1317.76 515.614L1418.36 323.978H1620.15L1620.44 324.541L1721.04 516.178L1720.74 516.741L1620.15 708.378ZM1419.54 706.123H1618.96L1718.67 516.178L1618.96 326.232H1419.54L1319.83 516.178L1419.54 706.123Z" fill="url(#paint138_linear_46_1277)"/>
<path d="M1623.6 714.967H1414.9L1414.61 714.403L1310.55 516.178L1310.85 515.615L1414.9 317.389H1623.61L1623.9 317.953L1727.96 516.178L1727.66 516.742L1623.6 714.967ZM1416.08 712.713H1622.42L1725.59 516.178L1622.42 319.644H1416.08L1312.92 516.178L1416.08 712.713Z" fill="url(#paint139_linear_46_1277)"/>
<path d="M1627.06 721.555H1411.44L1411.15 720.992L1303.63 516.178L1303.93 515.614L1411.44 310.8H1627.06L1627.36 311.363L1734.87 516.178L1734.57 516.741L1627.06 721.555ZM1412.62 719.301H1625.88L1732.51 516.178L1625.88 313.054H1412.62L1306 516.178L1412.62 719.301Z" fill="url(#paint140_linear_46_1277)"/>
<path d="M1630.52 728.144H1407.98L1407.69 727.581L1296.71 516.178L1297.01 515.614L1407.98 304.211H1630.52L1630.82 304.775L1741.79 516.178L1741.49 516.741L1630.52 728.144ZM1409.17 725.89H1629.34L1739.42 516.178L1629.34 306.465H1409.17L1299.08 516.178L1409.17 725.89Z" fill="url(#paint141_linear_46_1277)"/>
<path d="M1633.98 734.733H1404.52L1404.23 734.169L1289.8 516.177L1290.09 515.614L1404.53 297.622H1633.98L1634.28 298.186L1748.71 516.177L1748.41 516.741L1633.98 734.733ZM1405.71 732.478H1632.79L1746.34 516.177L1632.79 299.877H1405.71L1292.16 516.177L1405.71 732.478Z" fill="url(#paint142_linear_46_1277)"/>
<path d="M1637.44 741.321H1401.07L1400.77 740.758L1282.88 516.177L1283.18 515.613L1401.07 291.033H1637.44L1637.74 291.596L1755.63 516.177L1755.33 516.741L1637.44 741.321ZM1402.25 739.067H1636.25L1753.26 516.177L1636.25 293.287H1402.25L1285.25 516.177L1402.25 739.067Z" fill="url(#paint143_linear_46_1277)"/>
<path d="M1640.9 747.911H1397.61L1397.31 747.347L1275.96 516.178L1276.26 515.614L1397.61 284.445H1640.9L1641.19 285.008L1762.54 516.178L1762.24 516.741L1640.89 747.911H1640.9ZM1398.79 745.656H1639.71L1760.17 516.178L1639.71 286.699H1398.79L1278.33 516.178L1398.79 745.656Z" fill="url(#paint144_linear_46_1277)"/>
<path d="M1644.36 754.499H1394.15L1393.85 753.936L1269.05 516.177L1269.34 515.614L1394.15 277.855H1644.36L1644.65 278.419L1769.46 516.177L1769.16 516.741L1644.36 754.499ZM1395.33 752.245H1643.17L1767.09 516.177L1643.17 280.11H1395.33L1271.41 516.177L1395.33 752.245Z" fill="url(#paint145_linear_46_1277)"/>
<path d="M1647.81 761.088H1390.69L1390.39 760.524L1262.13 516.177L1262.43 515.614L1390.69 271.267H1647.82L1648.11 271.83L1776.38 516.177L1776.08 516.741L1647.81 761.088ZM1391.87 758.833H1646.63L1774.01 516.177L1646.63 273.521H1391.87L1264.49 516.177L1391.87 758.833Z" fill="url(#paint146_linear_46_1277)"/>
<path d="M1651.27 767.677H1387.23L1386.93 767.114L1255.21 516.178L1255.51 515.614L1387.23 264.678H1651.27L1651.57 265.242L1783.29 516.178L1783 516.741L1651.27 767.677ZM1388.41 765.423H1650.09L1780.93 516.178L1650.09 266.933H1388.41L1257.57 516.178L1388.41 765.423Z" fill="url(#paint147_linear_46_1277)"/>
<path d="M1654.73 774.266H1383.77L1383.48 773.702L1248.29 516.178L1248.59 515.614L1383.77 258.089H1654.73L1655.03 258.653L1790.21 516.178L1789.92 516.741L1654.73 774.266ZM1384.95 772.011H1653.55L1787.84 516.178L1653.55 260.344H1384.95L1250.66 516.178L1384.95 772.011Z" fill="url(#paint148_linear_46_1277)"/>
<path d="M1658.19 780.853H1380.31L1380.02 780.29L1241.38 516.176L1241.67 515.613L1380.32 251.499H1658.19L1658.49 252.063L1797.13 516.176L1796.83 516.74L1658.19 780.853ZM1381.5 778.599H1657.01L1794.76 516.176L1657.01 253.754H1381.5L1243.74 516.176L1381.5 778.599Z" fill="url(#paint149_linear_46_1277)"/>
<path d="M1661.65 787.444H1376.85L1376.56 786.88L1234.46 516.178L1234.76 515.614L1376.85 244.912H1661.65L1661.94 245.476L1804.05 516.178L1803.75 516.742L1661.65 787.444H1661.65ZM1378.04 785.189H1660.47L1801.68 516.178L1660.47 247.167H1378.04L1236.83 516.178L1378.04 785.189Z" fill="url(#paint150_linear_46_1277)"/>
<path d="M1665.11 794.032H1373.4L1373.1 793.469L1227.54 516.178L1373.4 238.323H1665.11L1665.41 238.886L1810.96 516.178L1810.67 516.741L1665.11 794.032ZM1374.58 791.778H1663.92L1808.6 516.178L1663.92 240.577H1374.58L1229.91 516.178L1374.58 791.778Z" fill="url(#paint151_linear_46_1277)"/>
</g>
</g>
</g>
<defs>
<radialGradient id="paint0_radial_46_1277" cx="0" cy="0" r="1" gradientUnits="userSpaceOnUse" gradientTransform="translate(243.584 -279.514) scale(969.954 1299)">
<stop stop-color="white"/>
<stop offset="0.28" stop-color="#D3DCE3"/>
<stop offset="0.77" stop-color="#8CA4B8"/>
<stop offset="1" stop-color="#718FA7"/>
</radialGradient>
<linearGradient id="paint1_linear_46_1277" x1="1955.04" y1="378.944" x2="1955.04" y2="99.959" gradientUnits="userSpaceOnUse">
<stop stop-color="white"/>
<stop offset="0.09" stop-color="white"/>
<stop offset="1" stop-color="white"/>
</linearGradient>
<linearGradient id="paint2_linear_46_1277" x1="1955.04" y1="385.529" x2="1955.04" y2="93.3724" gradientUnits="userSpaceOnUse">
<stop stop-color="white"/>
<stop offset="0.09" stop-color="white"/>
<stop offset="1" stop-color="white"/>
</linearGradient>
<linearGradient id="paint3_linear_46_1277" x1="1955.04" y1="392.119" x2="1955.04" y2="86.7842" gradientUnits="userSpaceOnUse">
<stop stop-color="white"/>
<stop offset="0.09" stop-color="white"/>
<stop offset="1" stop-color="white"/>
</linearGradient>
<linearGradient id="paint4_linear_46_1277" x1="1955.04" y1="398.707" x2="1955.04" y2="80.1953" gradientUnits="userSpaceOnUse">
<stop stop-color="white"/>
<stop offset="0.09" stop-color="white"/>
<stop offset="1" stop-color="white"/>
</linearGradient>
<linearGradient id="paint5_linear_46_1277" x1="430.001" y1="405.296" x2="430.31" y2="73.606" gradientUnits="userSpaceOnUse">
<stop stop-color="white"/>
<stop offset="0.09" stop-color="white"/>
<stop offset="1" stop-color="white"/>
</linearGradient>
<linearGradient id="paint6_linear_46_1277" x1="1955.04" y1="411.884" x2="1955.04" y2="67.0171" gradientUnits="userSpaceOnUse">
<stop stop-color="white"/>
<stop offset="0.09" stop-color="white"/>
<stop offset="1" stop-color="white"/>
</linearGradient>
<linearGradient id="paint7_linear_46_1277" x1="430" y1="418.474" x2="430.31" y2="60.4288" gradientUnits="userSpaceOnUse">
<stop stop-color="white"/>
<stop offset="0.09" stop-color="white"/>
<stop offset="1" stop-color="white"/>
</linearGradient>
<linearGradient id="paint8_linear_46_1277" x1="1955.04" y1="425.062" x2="1955.04" y2="53.8398" gradientUnits="userSpaceOnUse">
<stop stop-color="white"/>
<stop offset="0.09" stop-color="white"/>
<stop offset="1" stop-color="white"/>
</linearGradient>
<linearGradient id="paint9_linear_46_1277" x1="1955.04" y1="431.651" x2="1955.04" y2="47.251" gradientUnits="userSpaceOnUse">
<stop stop-color="white"/>
<stop offset="0.09" stop-color="white"/>
<stop offset="1" stop-color="white"/>
</linearGradient>
<linearGradient id="paint10_linear_46_1277" x1="430" y1="438.241" x2="430.31" y2="40.6626" gradientUnits="userSpaceOnUse">
<stop stop-color="white"/>
<stop offset="0.09" stop-color="white"/>
<stop offset="1" stop-color="white"/>
</linearGradient>
<linearGradient id="paint11_linear_46_1277" x1="1955.04" y1="444.829" x2="1955.04" y2="34.0732" gradientUnits="userSpaceOnUse">
<stop stop-color="white"/>
<stop offset="0.09" stop-color="white"/>
<stop offset="1" stop-color="white"/>
</linearGradient>
<linearGradient id="paint12_linear_46_1277" x1="430" y1="451.418" x2="430.31" y2="27.4844" gradientUnits="userSpaceOnUse">
<stop stop-color="white"/>
<stop offset="0.09" stop-color="white"/>
<stop offset="1" stop-color="white"/>
</linearGradient>
<linearGradient id="paint13_linear_46_1277" x1="1955.04" y1="458.007" x2="1955.04" y2="20.896" gradientUnits="userSpaceOnUse">
<stop stop-color="white"/>
<stop offset="0.09" stop-color="white"/>
<stop offset="1" stop-color="white"/>
</linearGradient>
<linearGradient id="paint14_linear_46_1277" x1="1955.04" y1="464.596" x2="1955.04" y2="14.3071" gradientUnits="userSpaceOnUse">
<stop stop-color="white"/>
<stop offset="0.09" stop-color="white"/>
<stop offset="1" stop-color="white"/>
</linearGradient>
<linearGradient id="paint15_linear_46_1277" x1="1955.04" y1="471.184" x2="1955.04" y2="7.71826" gradientUnits="userSpaceOnUse">
<stop stop-color="white"/>
<stop offset="0.09" stop-color="white"/>
<stop offset="1" stop-color="white"/>
</linearGradient>
<linearGradient id="paint16_linear_46_1277" x1="430.001" y1="477.773" x2="430.311" y2="1.12943" gradientUnits="userSpaceOnUse">
<stop stop-color="white"/>
<stop offset="0.09" stop-color="white"/>
<stop offset="1" stop-color="white"/>
</linearGradient>
<linearGradient id="paint17_linear_46_1277" x1="1955.04" y1="484.362" x2="1955.04" y2="-5.45898" gradientUnits="userSpaceOnUse">
<stop stop-color="white"/>
<stop offset="0.09" stop-color="white"/>
<stop offset="1" stop-color="white"/>
</linearGradient>
<linearGradient id="paint18_linear_46_1277" x1="430" y1="490.951" x2="430.31" y2="-12.0483" gradientUnits="userSpaceOnUse">
<stop stop-color="white"/>
<stop offset="0.09" stop-color="white"/>
<stop offset="1" stop-color="white"/>
</linearGradient>
<linearGradient id="paint19_linear_46_1277" x1="1955.04" y1="497.539" x2="1955.04" y2="-18.6372" gradientUnits="userSpaceOnUse">
<stop stop-color="white"/>
<stop offset="0.09" stop-color="white"/>
<stop offset="1" stop-color="white"/>
</linearGradient>
<linearGradient id="paint20_linear_46_1277" x1="1955.04" y1="504.128" x2="1955.04" y2="-25.2261" gradientUnits="userSpaceOnUse">
<stop stop-color="white"/>
<stop offset="0.09" stop-color="white"/>
<stop offset="1" stop-color="white"/>
</linearGradient>
<linearGradient id="paint21_linear_46_1277" x1="430.001" y1="510.717" x2="430.31" y2="-31.8144" gradientUnits="userSpaceOnUse">
<stop stop-color="white"/>
<stop offset="0.09" stop-color="white"/>
<stop offset="1" stop-color="white"/>
</linearGradient>
<linearGradient id="paint22_linear_46_1277" x1="1955.04" y1="517.306" x2="1955.04" y2="-38.4038" gradientUnits="userSpaceOnUse">
<stop stop-color="white"/>
<stop offset="0.09" stop-color="white"/>
<stop offset="1" stop-color="white"/>
</linearGradient>
<linearGradient id="paint23_linear_46_1277" x1="1664.52" y1="102.212" x2="1664.52" y2="-176.767" gradientUnits="userSpaceOnUse">
<stop stop-color="white"/>
<stop offset="0.09" stop-color="white"/>
<stop offset="1" stop-color="white"/>
</linearGradient>
<linearGradient id="paint24_linear_46_1277" x1="1664.52" y1="108.802" x2="1664.52" y2="-183.354" gradientUnits="userSpaceOnUse">
<stop stop-color="white"/>
<stop offset="0.09" stop-color="white"/>
<stop offset="1" stop-color="white"/>
</linearGradient>
<linearGradient id="paint25_linear_46_1277" x1="1664.52" y1="115.39" x2="1664.52" y2="-189.945" gradientUnits="userSpaceOnUse">
<stop stop-color="white"/>
<stop offset="0.09" stop-color="white"/>
<stop offset="1" stop-color="white"/>
</linearGradient>
<linearGradient id="paint26_linear_46_1277" x1="1664.52" y1="121.979" x2="1664.52" y2="-196.533" gradientUnits="userSpaceOnUse">
<stop stop-color="white"/>
<stop offset="0.09" stop-color="white"/>
<stop offset="1" stop-color="white"/>
</linearGradient>
<linearGradient id="paint27_linear_46_1277" x1="1664.52" y1="128.568" x2="1664.52" y2="-203.122" gradientUnits="userSpaceOnUse">
<stop stop-color="white"/>
<stop offset="0.09" stop-color="white"/>
<stop offset="1" stop-color="white"/>
</linearGradient>
<linearGradient id="paint28_linear_46_1277" x1="1664.52" y1="135.156" x2="1664.52" y2="-209.711" gradientUnits="userSpaceOnUse">
<stop stop-color="white"/>
<stop offset="0.09" stop-color="white"/>
<stop offset="1" stop-color="white"/>
</linearGradient>
<linearGradient id="paint29_linear_46_1277" x1="1664.52" y1="141.746" x2="1664.52" y2="-216.299" gradientUnits="userSpaceOnUse">
<stop stop-color="white"/>
<stop offset="0.09" stop-color="white"/>
<stop offset="1" stop-color="white"/>
</linearGradient>
<linearGradient id="paint30_linear_46_1277" x1="1664.52" y1="148.333" x2="1664.52" y2="-222.889" gradientUnits="userSpaceOnUse">
<stop stop-color="white"/>
<stop offset="0.09" stop-color="white"/>
<stop offset="1" stop-color="white"/>
</linearGradient>
<linearGradient id="paint31_linear_46_1277" x1="1664.52" y1="154.922" x2="1664.52" y2="-229.478" gradientUnits="userSpaceOnUse">
<stop stop-color="white"/>
<stop offset="0.09" stop-color="white"/>
<stop offset="1" stop-color="white"/>
</linearGradient>
<linearGradient id="paint32_linear_46_1277" x1="1664.52" y1="161.512" x2="1664.52" y2="-236.066" gradientUnits="userSpaceOnUse">
<stop stop-color="white"/>
<stop offset="0.09" stop-color="white"/>
<stop offset="1" stop-color="white"/>
</linearGradient>
<linearGradient id="paint33_linear_46_1277" x1="1664.52" y1="168.101" x2="1664.52" y2="-242.655" gradientUnits="userSpaceOnUse">
<stop stop-color="white"/>
<stop offset="0.09" stop-color="white"/>
<stop offset="1" stop-color="white"/>
</linearGradient>
<linearGradient id="paint34_linear_46_1277" x1="1664.52" y1="174.689" x2="1664.52" y2="-249.244" gradientUnits="userSpaceOnUse">
<stop stop-color="white"/>
<stop offset="0.09" stop-color="white"/>
<stop offset="1" stop-color="white"/>
</linearGradient>
<linearGradient id="paint35_linear_46_1277" x1="1664.52" y1="181.278" x2="1664.52" y2="-255.833" gradientUnits="userSpaceOnUse">
<stop stop-color="white"/>
<stop offset="0.09" stop-color="white"/>
<stop offset="1" stop-color="white"/>
</linearGradient>
<linearGradient id="paint36_linear_46_1277" x1="1664.52" y1="187.867" x2="1664.52" y2="-262.421" gradientUnits="userSpaceOnUse">
<stop stop-color="white"/>
<stop offset="0.09" stop-color="white"/>
<stop offset="1" stop-color="white"/>
</linearGradient>
<linearGradient id="paint37_linear_46_1277" x1="1664.52" y1="194.456" x2="1664.52" y2="-269.01" gradientUnits="userSpaceOnUse">
<stop stop-color="white"/>
<stop offset="0.09" stop-color="white"/>
<stop offset="1" stop-color="white"/>
</linearGradient>
<linearGradient id="paint38_linear_46_1277" x1="1664.52" y1="201.045" x2="1664.52" y2="-275.599" gradientUnits="userSpaceOnUse">
<stop stop-color="white"/>
<stop offset="0.09" stop-color="white"/>
<stop offset="1" stop-color="white"/>
</linearGradient>
<linearGradient id="paint39_linear_46_1277" x1="1664.52" y1="207.634" x2="1664.52" y2="-282.188" gradientUnits="userSpaceOnUse">
<stop stop-color="white"/>
<stop offset="0.09" stop-color="white"/>
<stop offset="1" stop-color="white"/>
</linearGradient>
<linearGradient id="paint40_linear_46_1277" x1="1664.52" y1="214.223" x2="1664.52" y2="-288.776" gradientUnits="userSpaceOnUse">
<stop stop-color="white"/>
<stop offset="0.09" stop-color="white"/>
<stop offset="1" stop-color="white"/>
</linearGradient>
<linearGradient id="paint41_linear_46_1277" x1="1664.52" y1="220.811" x2="1664.52" y2="-295.366" gradientUnits="userSpaceOnUse">
<stop stop-color="white"/>
<stop offset="0.09" stop-color="white"/>
<stop offset="1" stop-color="white"/>
</linearGradient>
<linearGradient id="paint42_linear_46_1277" x1="1664.52" y1="227.4" x2="1664.52" y2="-301.954" gradientUnits="userSpaceOnUse">
<stop stop-color="white"/>
<stop offset="0.09" stop-color="white"/>
<stop offset="1" stop-color="white"/>
</linearGradient>
<linearGradient id="paint43_linear_46_1277" x1="1664.52" y1="233.989" x2="1664.52" y2="-308.543" gradientUnits="userSpaceOnUse">
<stop stop-color="white"/>
<stop offset="0.09" stop-color="white"/>
<stop offset="1" stop-color="white"/>
</linearGradient>
<linearGradient id="paint44_linear_46_1277" x1="1664.52" y1="240.578" x2="1664.52" y2="-315.132" gradientUnits="userSpaceOnUse">
<stop stop-color="white"/>
<stop offset="0.09" stop-color="white"/>
<stop offset="1" stop-color="white"/>
</linearGradient>
<linearGradient id="paint45_linear_46_1277" x1="1227.54" y1="516.177" x2="1520.44" y2="516.177" gradientUnits="userSpaceOnUse">
<stop stop-color="white"/>
<stop offset="0.91" stop-color="white"/>
<stop offset="1" stop-color="white"/>
</linearGradient>
<linearGradient id="paint46_linear_46_1277" x1="1220.62" y1="516.178" x2="1527.35" y2="516.178" gradientUnits="userSpaceOnUse">
<stop stop-color="white"/>
<stop offset="0.91" stop-color="white"/>
<stop offset="1" stop-color="white"/>
</linearGradient>
<linearGradient id="paint47_linear_46_1277" x1="1213.71" y1="516.176" x2="1534.27" y2="516.176" gradientUnits="userSpaceOnUse">
<stop stop-color="white"/>
<stop offset="0.91" stop-color="white"/>
<stop offset="1" stop-color="white"/>
</linearGradient>
<linearGradient id="paint48_linear_46_1277" x1="1206.79" y1="516.178" x2="1541.19" y2="516.178" gradientUnits="userSpaceOnUse">
<stop stop-color="white"/>
<stop offset="0.91" stop-color="white"/>
<stop offset="1" stop-color="white"/>
</linearGradient>
<linearGradient id="paint49_linear_46_1277" x1="1199.87" y1="516.177" x2="1548.1" y2="516.177" gradientUnits="userSpaceOnUse">
<stop stop-color="white"/>
<stop offset="0.91" stop-color="white"/>
<stop offset="1" stop-color="white"/>
</linearGradient>
<linearGradient id="paint50_linear_46_1277" x1="1192.95" y1="516.177" x2="1555.02" y2="516.177" gradientUnits="userSpaceOnUse">
<stop stop-color="white"/>
<stop offset="0.91" stop-color="white"/>
<stop offset="1" stop-color="white"/>
</linearGradient>
<linearGradient id="paint51_linear_46_1277" x1="1186.04" y1="516.178" x2="1561.94" y2="516.178" gradientUnits="userSpaceOnUse">
<stop stop-color="white"/>
<stop offset="0.91" stop-color="white"/>
<stop offset="1" stop-color="white"/>
</linearGradient>
<linearGradient id="paint52_linear_46_1277" x1="1179.12" y1="516.178" x2="1568.86" y2="516.178" gradientUnits="userSpaceOnUse">
<stop stop-color="white"/>
<stop offset="0.91" stop-color="white"/>
<stop offset="1" stop-color="white"/>
</linearGradient>
<linearGradient id="paint53_linear_46_1277" x1="1172.2" y1="516.178" x2="1575.77" y2="516.178" gradientUnits="userSpaceOnUse">
<stop stop-color="white"/>
<stop offset="0.91" stop-color="white"/>
<stop offset="1" stop-color="white"/>
</linearGradient>
<linearGradient id="paint54_linear_46_1277" x1="1165.28" y1="516.178" x2="1582.69" y2="516.178" gradientUnits="userSpaceOnUse">
<stop stop-color="white"/>
<stop offset="0.91" stop-color="white"/>
<stop offset="1" stop-color="white"/>
</linearGradient>
<linearGradient id="paint55_linear_46_1277" x1="1158.37" y1="516.178" x2="1589.61" y2="516.178" gradientUnits="userSpaceOnUse">
<stop stop-color="white"/>
<stop offset="0.91" stop-color="white"/>
<stop offset="1" stop-color="white"/>
</linearGradient>
<linearGradient id="paint56_linear_46_1277" x1="1151.45" y1="516.178" x2="1596.53" y2="516.178" gradientUnits="userSpaceOnUse">
<stop stop-color="white"/>
<stop offset="0.91" stop-color="white"/>
<stop offset="1" stop-color="white"/>
</linearGradient>
<linearGradient id="paint57_linear_46_1277" x1="1144.53" y1="516.177" x2="1603.44" y2="516.177" gradientUnits="userSpaceOnUse">
<stop stop-color="white"/>
<stop offset="0.91" stop-color="white"/>
<stop offset="1" stop-color="white"/>
</linearGradient>
<linearGradient id="paint58_linear_46_1277" x1="1137.61" y1="516.177" x2="1610.36" y2="516.177" gradientUnits="userSpaceOnUse">
<stop stop-color="white"/>
<stop offset="0.91" stop-color="white"/>
<stop offset="1" stop-color="white"/>
</linearGradient>
<linearGradient id="paint59_linear_46_1277" x1="1130.7" y1="516.178" x2="1617.28" y2="516.178" gradientUnits="userSpaceOnUse">
<stop stop-color="white"/>
<stop offset="0.91" stop-color="white"/>
<stop offset="1" stop-color="white"/>
</linearGradient>
<linearGradient id="paint60_linear_46_1277" x1="1123.78" y1="516.177" x2="1624.2" y2="516.177" gradientUnits="userSpaceOnUse">
<stop stop-color="white"/>
<stop offset="0.91" stop-color="white"/>
<stop offset="1" stop-color="white"/>
</linearGradient>
<linearGradient id="paint61_linear_46_1277" x1="1116.86" y1="516.177" x2="1631.11" y2="516.177" gradientUnits="userSpaceOnUse">
<stop stop-color="white"/>
<stop offset="0.91" stop-color="white"/>
<stop offset="1" stop-color="white"/>
</linearGradient>
<linearGradient id="paint62_linear_46_1277" x1="1109.95" y1="516.178" x2="1638.03" y2="516.178" gradientUnits="userSpaceOnUse">
<stop stop-color="white"/>
<stop offset="0.91" stop-color="white"/>
<stop offset="1" stop-color="white"/>
</linearGradient>
<linearGradient id="paint63_linear_46_1277" x1="1103.03" y1="516.178" x2="1644.95" y2="516.178" gradientUnits="userSpaceOnUse">
<stop stop-color="white"/>
<stop offset="0.91" stop-color="white"/>
<stop offset="1" stop-color="white"/>
</linearGradient>
<linearGradient id="paint64_linear_46_1277" x1="1096.11" y1="516.176" x2="1651.86" y2="516.176" gradientUnits="userSpaceOnUse">
<stop stop-color="white"/>
<stop offset="0.91" stop-color="white"/>
<stop offset="1" stop-color="white"/>
</linearGradient>
<linearGradient id="paint65_linear_46_1277" x1="1089.19" y1="516.178" x2="1658.78" y2="516.178" gradientUnits="userSpaceOnUse">
<stop stop-color="white"/>
<stop offset="0.91" stop-color="white"/>
<stop offset="1" stop-color="white"/>
</linearGradient>
<linearGradient id="paint66_linear_46_1277" x1="1082.28" y1="516.178" x2="1665.7" y2="516.178" gradientUnits="userSpaceOnUse">
<stop stop-color="white"/>
<stop offset="0.91" stop-color="white"/>
<stop offset="1" stop-color="white"/>
</linearGradient>
<linearGradient id="paint67_linear_46_1277" x1="1882.41" y1="238.323" x2="1882.41" y2="517.305" gradientUnits="userSpaceOnUse">
<stop stop-color="white"/>
<stop offset="0.09" stop-color="white"/>
<stop offset="1" stop-color="white"/>
</linearGradient>
<linearGradient id="paint68_linear_46_1277" x1="1882.41" y1="231.735" x2="1882.41" y2="523.895" gradientUnits="userSpaceOnUse">
<stop stop-color="white"/>
<stop offset="0.09" stop-color="white"/>
<stop offset="1" stop-color="white"/>
</linearGradient>
<linearGradient id="paint69_linear_46_1277" x1="1882.41" y1="225.146" x2="1882.41" y2="530.483" gradientUnits="userSpaceOnUse">
<stop stop-color="white"/>
<stop offset="0.09" stop-color="white"/>
<stop offset="1" stop-color="white"/>
</linearGradient>
<linearGradient id="paint70_linear_46_1277" x1="1882.41" y1="218.558" x2="1882.41" y2="537.073" gradientUnits="userSpaceOnUse">
<stop stop-color="white"/>
<stop offset="0.09" stop-color="white"/>
<stop offset="1" stop-color="white"/>
</linearGradient>
<linearGradient id="paint71_linear_46_1277" x1="1882.41" y1="211.969" x2="1882.41" y2="543.661" gradientUnits="userSpaceOnUse">
<stop stop-color="white"/>
<stop offset="0.09" stop-color="white"/>
<stop offset="1" stop-color="white"/>
</linearGradient>
<linearGradient id="paint72_linear_46_1277" x1="1882.41" y1="205.38" x2="1882.41" y2="550.25" gradientUnits="userSpaceOnUse">
<stop stop-color="white"/>
<stop offset="0.09" stop-color="white"/>
<stop offset="1" stop-color="white"/>
</linearGradient>
<linearGradient id="paint73_linear_46_1277" x1="1882.41" y1="198.792" x2="1882.41" y2="556.839" gradientUnits="userSpaceOnUse">
<stop stop-color="white"/>
<stop offset="0.09" stop-color="white"/>
<stop offset="1" stop-color="white"/>
</linearGradient>
<linearGradient id="paint74_linear_46_1277" x1="1882.41" y1="192.203" x2="1882.41" y2="563.428" gradientUnits="userSpaceOnUse">
<stop stop-color="white"/>
<stop offset="0.09" stop-color="white"/>
<stop offset="1" stop-color="white"/>
</linearGradient>
<linearGradient id="paint75_linear_46_1277" x1="1882.41" y1="185.613" x2="1882.41" y2="570.016" gradientUnits="userSpaceOnUse">
<stop stop-color="white"/>
<stop offset="0.09" stop-color="white"/>
<stop offset="1" stop-color="white"/>
</linearGradient>
<linearGradient id="paint76_linear_46_1277" x1="1882.41" y1="179.025" x2="1882.41" y2="576.605" gradientUnits="userSpaceOnUse">
<stop stop-color="white"/>
<stop offset="0.09" stop-color="white"/>
<stop offset="1" stop-color="white"/>
</linearGradient>
<linearGradient id="paint77_linear_46_1277" x1="1882.41" y1="172.436" x2="1882.41" y2="583.194" gradientUnits="userSpaceOnUse">
<stop stop-color="white"/>
<stop offset="0.09" stop-color="white"/>
<stop offset="1" stop-color="white"/>
</linearGradient>
<linearGradient id="paint78_linear_46_1277" x1="1882.41" y1="165.846" x2="1882.41" y2="589.782" gradientUnits="userSpaceOnUse">
<stop stop-color="white"/>
<stop offset="0.09" stop-color="white"/>
<stop offset="1" stop-color="white"/>
</linearGradient>
<linearGradient id="paint79_linear_46_1277" x1="1882.41" y1="159.258" x2="1882.41" y2="596.372" gradientUnits="userSpaceOnUse">
<stop stop-color="white"/>
<stop offset="0.09" stop-color="white"/>
<stop offset="1" stop-color="white"/>
</linearGradient>
<linearGradient id="paint80_linear_46_1277" x1="1882.41" y1="152.67" x2="1882.41" y2="602.961" gradientUnits="userSpaceOnUse">
<stop stop-color="white"/>
<stop offset="0.09" stop-color="white"/>
<stop offset="1" stop-color="white"/>
</linearGradient>
<linearGradient id="paint81_linear_46_1277" x1="1882.41" y1="146.08" x2="1882.41" y2="609.549" gradientUnits="userSpaceOnUse">
<stop stop-color="white"/>
<stop offset="0.09" stop-color="white"/>
<stop offset="1" stop-color="white"/>
</linearGradient>
<linearGradient id="paint82_linear_46_1277" x1="1882.41" y1="139.491" x2="1882.41" y2="616.138" gradientUnits="userSpaceOnUse">
<stop stop-color="white"/>
<stop offset="0.09" stop-color="white"/>
<stop offset="1" stop-color="white"/>
</linearGradient>
<linearGradient id="paint83_linear_46_1277" x1="1882.41" y1="132.902" x2="1882.41" y2="622.727" gradientUnits="userSpaceOnUse">
<stop stop-color="white"/>
<stop offset="0.09" stop-color="white"/>
<stop offset="1" stop-color="white"/>
</linearGradient>
<linearGradient id="paint84_linear_46_1277" x1="1882.41" y1="126.314" x2="1882.41" y2="629.316" gradientUnits="userSpaceOnUse">
<stop stop-color="white"/>
<stop offset="0.09" stop-color="white"/>
<stop offset="1" stop-color="white"/>
</linearGradient>
<linearGradient id="paint85_linear_46_1277" x1="1882.41" y1="119.725" x2="1882.41" y2="635.905" gradientUnits="userSpaceOnUse">
<stop stop-color="white"/>
<stop offset="0.09" stop-color="white"/>
<stop offset="1" stop-color="white"/>
</linearGradient>
<linearGradient id="paint86_linear_46_1277" x1="1882.41" y1="113.136" x2="1882.41" y2="642.494" gradientUnits="userSpaceOnUse">
<stop stop-color="white"/>
<stop offset="0.09" stop-color="white"/>
<stop offset="1" stop-color="white"/>
</linearGradient>
<linearGradient id="paint87_linear_46_1277" x1="1882.41" y1="106.548" x2="1882.41" y2="649.083" gradientUnits="userSpaceOnUse">
<stop stop-color="white"/>
<stop offset="0.09" stop-color="white"/>
<stop offset="1" stop-color="white"/>
</linearGradient>
<linearGradient id="paint88_linear_46_1277" x1="1882.41" y1="99.9586" x2="1882.41" y2="655.671" gradientUnits="userSpaceOnUse">
<stop stop-color="white"/>
<stop offset="0.09" stop-color="white"/>
<stop offset="1" stop-color="white"/>
</linearGradient>
<linearGradient id="paint89_linear_46_1277" x1="1591.88" y1="-38.4033" x2="1591.88" y2="240.579" gradientUnits="userSpaceOnUse">
<stop stop-color="white"/>
<stop offset="0.09" stop-color="white"/>
<stop offset="1" stop-color="white"/>
</linearGradient>
<linearGradient id="paint90_linear_46_1277" x1="1591.88" y1="-44.9927" x2="1591.88" y2="247.167" gradientUnits="userSpaceOnUse">
<stop stop-color="white"/>
<stop offset="0.09" stop-color="white"/>
<stop offset="1" stop-color="white"/>
</linearGradient>
<linearGradient id="paint91_linear_46_1277" x1="1591.88" y1="-51.5819" x2="1591.88" y2="253.755" gradientUnits="userSpaceOnUse">
<stop stop-color="white"/>
<stop offset="0.09" stop-color="white"/>
<stop offset="1" stop-color="white"/>
</linearGradient>
<linearGradient id="paint92_linear_46_1277" x1="1591.88" y1="-58.1698" x2="1591.88" y2="260.345" gradientUnits="userSpaceOnUse">
<stop stop-color="white"/>
<stop offset="0.09" stop-color="white"/>
<stop offset="1" stop-color="white"/>
</linearGradient>
<linearGradient id="paint93_linear_46_1277" x1="1591.88" y1="-64.7592" x2="1591.88" y2="266.933" gradientUnits="userSpaceOnUse">
<stop stop-color="white"/>
<stop offset="0.09" stop-color="white"/>
<stop offset="1" stop-color="white"/>
</linearGradient>
<linearGradient id="paint94_linear_46_1277" x1="1591.88" y1="-71.348" x2="1591.88" y2="273.522" gradientUnits="userSpaceOnUse">
<stop stop-color="white"/>
<stop offset="0.09" stop-color="white"/>
<stop offset="1" stop-color="white"/>
</linearGradient>
<linearGradient id="paint95_linear_46_1277" x1="1591.88" y1="-77.9364" x2="1591.88" y2="280.111" gradientUnits="userSpaceOnUse">
<stop stop-color="white"/>
<stop offset="0.09" stop-color="white"/>
<stop offset="1" stop-color="white"/>
</linearGradient>
<linearGradient id="paint96_linear_46_1277" x1="1591.88" y1="-84.5253" x2="1591.88" y2="286.7" gradientUnits="userSpaceOnUse">
<stop stop-color="white"/>
<stop offset="0.09" stop-color="white"/>
<stop offset="1" stop-color="white"/>
</linearGradient>
<linearGradient id="paint97_linear_46_1277" x1="1591.88" y1="-91.1151" x2="1591.88" y2="293.288" gradientUnits="userSpaceOnUse">
<stop stop-color="white"/>
<stop offset="0.09" stop-color="white"/>
<stop offset="1" stop-color="white"/>
</linearGradient>
<linearGradient id="paint98_linear_46_1277" x1="1591.88" y1="-97.7025" x2="1591.88" y2="299.878" gradientUnits="userSpaceOnUse">
<stop stop-color="white"/>
<stop offset="0.09" stop-color="white"/>
<stop offset="1" stop-color="white"/>
</linearGradient>
<linearGradient id="paint99_linear_46_1277" x1="1591.88" y1="-104.292" x2="1591.88" y2="306.466" gradientUnits="userSpaceOnUse">
<stop stop-color="white"/>
<stop offset="0.09" stop-color="white"/>
<stop offset="1" stop-color="white"/>
</linearGradient>
<linearGradient id="paint100_linear_46_1277" x1="1591.88" y1="-110.881" x2="1591.88" y2="313.055" gradientUnits="userSpaceOnUse">
<stop stop-color="white"/>
<stop offset="0.09" stop-color="white"/>
<stop offset="1" stop-color="white"/>
</linearGradient>
<linearGradient id="paint101_linear_46_1277" x1="1591.88" y1="-117.47" x2="1591.88" y2="319.644" gradientUnits="userSpaceOnUse">
<stop stop-color="white"/>
<stop offset="0.09" stop-color="white"/>
<stop offset="1" stop-color="white"/>
</linearGradient>
<linearGradient id="paint102_linear_46_1277" x1="1591.88" y1="-124.058" x2="1591.88" y2="326.233" gradientUnits="userSpaceOnUse">
<stop stop-color="white"/>
<stop offset="0.09" stop-color="white"/>
<stop offset="1" stop-color="white"/>
</linearGradient>
<linearGradient id="paint103_linear_46_1277" x1="1591.88" y1="-130.647" x2="1591.88" y2="332.822" gradientUnits="userSpaceOnUse">
<stop stop-color="white"/>
<stop offset="0.09" stop-color="white"/>
<stop offset="1" stop-color="white"/>
</linearGradient>
<linearGradient id="paint104_linear_46_1277" x1="1591.88" y1="-137.236" x2="1591.88" y2="339.411" gradientUnits="userSpaceOnUse">
<stop stop-color="white"/>
<stop offset="0.09" stop-color="white"/>
<stop offset="1" stop-color="white"/>
</linearGradient>
<linearGradient id="paint105_linear_46_1277" x1="1591.88" y1="-143.825" x2="1591.88" y2="345.999" gradientUnits="userSpaceOnUse">
<stop stop-color="white"/>
<stop offset="0.09" stop-color="white"/>
<stop offset="1" stop-color="white"/>
</linearGradient>
<linearGradient id="paint106_linear_46_1277" x1="1591.88" y1="-150.413" x2="1591.88" y2="352.588" gradientUnits="userSpaceOnUse">
<stop stop-color="white"/>
<stop offset="0.09" stop-color="white"/>
<stop offset="1" stop-color="white"/>
</linearGradient>
<linearGradient id="paint107_linear_46_1277" x1="1591.88" y1="-157.002" x2="1591.88" y2="359.177" gradientUnits="userSpaceOnUse">
<stop stop-color="white"/>
<stop offset="0.09" stop-color="white"/>
<stop offset="1" stop-color="white"/>
</linearGradient>
<linearGradient id="paint108_linear_46_1277" x1="1591.88" y1="-163.591" x2="1591.88" y2="365.766" gradientUnits="userSpaceOnUse">
<stop stop-color="white"/>
<stop offset="0.09" stop-color="white"/>
<stop offset="1" stop-color="white"/>
</linearGradient>
<linearGradient id="paint109_linear_46_1277" x1="1591.88" y1="-170.177" x2="1591.88" y2="372.355" gradientUnits="userSpaceOnUse">
<stop stop-color="white"/>
<stop offset="0.09" stop-color="white"/>
<stop offset="1" stop-color="white"/>
</linearGradient>
<linearGradient id="paint110_linear_46_1277" x1="1591.88" y1="-176.766" x2="1591.88" y2="378.943" gradientUnits="userSpaceOnUse">
<stop stop-color="white"/>
<stop offset="0.09" stop-color="white"/>
<stop offset="1" stop-color="white"/>
</linearGradient>
<linearGradient id="paint111_linear_46_1277" x1="1809.78" y1="633.649" x2="1809.78" y2="952.161" gradientUnits="userSpaceOnUse">
<stop stop-color="white"/>
<stop offset="0.09" stop-color="white"/>
<stop offset="1" stop-color="white"/>
</linearGradient>
<linearGradient id="paint112_linear_46_1277" x1="1809.78" y1="627.061" x2="1809.78" y2="958.75" gradientUnits="userSpaceOnUse">
<stop stop-color="white"/>
<stop offset="0.09" stop-color="white"/>
<stop offset="1" stop-color="white"/>
</linearGradient>
<linearGradient id="paint113_linear_46_1277" x1="1809.78" y1="620.472" x2="1809.78" y2="965.339" gradientUnits="userSpaceOnUse">
<stop stop-color="white"/>
<stop offset="0.09" stop-color="white"/>
<stop offset="1" stop-color="white"/>
</linearGradient>
<linearGradient id="paint114_linear_46_1277" x1="1809.78" y1="613.883" x2="1809.78" y2="971.928" gradientUnits="userSpaceOnUse">
<stop stop-color="white"/>
<stop offset="0.09" stop-color="white"/>
<stop offset="1" stop-color="white"/>
</linearGradient>
<linearGradient id="paint115_linear_46_1277" x1="1809.78" y1="607.295" x2="1809.78" y2="978.518" gradientUnits="userSpaceOnUse">
<stop stop-color="white"/>
<stop offset="0.09" stop-color="white"/>
<stop offset="1" stop-color="white"/>
</linearGradient>
<linearGradient id="paint116_linear_46_1277" x1="1809.78" y1="600.706" x2="1809.78" y2="985.106" gradientUnits="userSpaceOnUse">
<stop stop-color="white"/>
<stop offset="0.09" stop-color="white"/>
<stop offset="1" stop-color="white"/>
</linearGradient>
<linearGradient id="paint117_linear_46_1277" x1="1809.78" y1="594.117" x2="1809.78" y2="991.695" gradientUnits="userSpaceOnUse">
<stop stop-color="white"/>
<stop offset="0.09" stop-color="white"/>
<stop offset="1" stop-color="white"/>
</linearGradient>
<linearGradient id="paint118_linear_46_1277" x1="1809.78" y1="587.527" x2="1809.78" y2="998.283" gradientUnits="userSpaceOnUse">
<stop stop-color="white"/>
<stop offset="0.09" stop-color="white"/>
<stop offset="1" stop-color="white"/>
</linearGradient>
<linearGradient id="paint119_linear_46_1277" x1="1809.78" y1="580.939" x2="1809.78" y2="1004.87" gradientUnits="userSpaceOnUse">
<stop stop-color="white"/>
<stop offset="0.09" stop-color="white"/>
<stop offset="1" stop-color="white"/>
</linearGradient>
<linearGradient id="paint120_linear_46_1277" x1="1809.78" y1="574.35" x2="1809.78" y2="1011.46" gradientUnits="userSpaceOnUse">
<stop stop-color="white"/>
<stop offset="0.09" stop-color="white"/>
<stop offset="1" stop-color="white"/>
</linearGradient>
<linearGradient id="paint121_linear_46_1277" x1="1809.78" y1="567.762" x2="1809.78" y2="1018.05" gradientUnits="userSpaceOnUse">
<stop stop-color="white"/>
<stop offset="0.09" stop-color="white"/>
<stop offset="1" stop-color="white"/>
</linearGradient>
<linearGradient id="paint122_linear_46_1277" x1="1809.78" y1="561.173" x2="1809.78" y2="1024.64" gradientUnits="userSpaceOnUse">
<stop stop-color="white"/>
<stop offset="0.09" stop-color="white"/>
<stop offset="1" stop-color="white"/>
</linearGradient>
<linearGradient id="paint123_linear_46_1277" x1="1809.78" y1="554.584" x2="1809.78" y2="1031.23" gradientUnits="userSpaceOnUse">
<stop stop-color="white"/>
<stop offset="0.09" stop-color="white"/>
<stop offset="1" stop-color="white"/>
</linearGradient>
<linearGradient id="paint124_linear_46_1277" x1="1809.78" y1="547.995" x2="1809.78" y2="1037.82" gradientUnits="userSpaceOnUse">
<stop stop-color="white"/>
<stop offset="0.09" stop-color="white"/>
<stop offset="1" stop-color="white"/>
</linearGradient>
<linearGradient id="paint125_linear_46_1277" x1="1809.78" y1="541.406" x2="1809.78" y2="1044.4" gradientUnits="userSpaceOnUse">
<stop stop-color="white"/>
<stop offset="0.09" stop-color="white"/>
<stop offset="1" stop-color="white"/>
</linearGradient>
<linearGradient id="paint126_linear_46_1277" x1="1809.78" y1="534.818" x2="1809.78" y2="1050.99" gradientUnits="userSpaceOnUse">
<stop stop-color="white"/>
<stop offset="0.09" stop-color="white"/>
<stop offset="1" stop-color="white"/>
</linearGradient>
<linearGradient id="paint127_linear_46_1277" x1="1809.78" y1="528.229" x2="1809.78" y2="1057.58" gradientUnits="userSpaceOnUse">
<stop stop-color="white"/>
<stop offset="0.09" stop-color="white"/>
<stop offset="1" stop-color="white"/>
</linearGradient>
<linearGradient id="paint128_linear_46_1277" x1="1809.78" y1="521.64" x2="1809.78" y2="1064.17" gradientUnits="userSpaceOnUse">
<stop stop-color="white"/>
<stop offset="0.09" stop-color="white"/>
<stop offset="1" stop-color="white"/>
</linearGradient>
<linearGradient id="paint129_linear_46_1277" x1="1809.78" y1="515.051" x2="1809.78" y2="1070.76" gradientUnits="userSpaceOnUse">
<stop stop-color="white"/>
<stop offset="0.09" stop-color="white"/>
<stop offset="1" stop-color="white"/>
</linearGradient>
<linearGradient id="paint130_linear_46_1277" x1="1519.25" y1="376.687" x2="1519.25" y2="655.669" gradientUnits="userSpaceOnUse">
<stop stop-color="white"/>
<stop offset="0.09" stop-color="white"/>
<stop offset="1" stop-color="white"/>
</linearGradient>
<linearGradient id="paint131_linear_46_1277" x1="1519.25" y1="370.099" x2="1519.25" y2="662.259" gradientUnits="userSpaceOnUse">
<stop stop-color="white"/>
<stop offset="0.09" stop-color="white"/>
<stop offset="1" stop-color="white"/>
</linearGradient>
<linearGradient id="paint132_linear_46_1277" x1="1519.25" y1="363.511" x2="1519.25" y2="668.846" gradientUnits="userSpaceOnUse">
<stop stop-color="white"/>
<stop offset="0.09" stop-color="white"/>
<stop offset="1" stop-color="white"/>
</linearGradient>
<linearGradient id="paint133_linear_46_1277" x1="1519.25" y1="356.922" x2="1519.25" y2="675.434" gradientUnits="userSpaceOnUse">
<stop stop-color="white"/>
<stop offset="0.09" stop-color="white"/>
<stop offset="1" stop-color="white"/>
</linearGradient>
<linearGradient id="paint134_linear_46_1277" x1="1519.25" y1="350.333" x2="1519.25" y2="682.022" gradientUnits="userSpaceOnUse">
<stop stop-color="white"/>
<stop offset="0.09" stop-color="white"/>
<stop offset="1" stop-color="white"/>
</linearGradient>
<linearGradient id="paint135_linear_46_1277" x1="1519.25" y1="343.744" x2="1519.25" y2="688.611" gradientUnits="userSpaceOnUse">
<stop stop-color="white"/>
<stop offset="0.09" stop-color="white"/>
<stop offset="1" stop-color="white"/>
</linearGradient>
<linearGradient id="paint136_linear_46_1277" x1="1519.25" y1="337.156" x2="1519.25" y2="695.201" gradientUnits="userSpaceOnUse">
<stop stop-color="white"/>
<stop offset="0.09" stop-color="white"/>
<stop offset="1" stop-color="white"/>
</linearGradient>
<linearGradient id="paint137_linear_46_1277" x1="1519.25" y1="330.566" x2="1519.25" y2="701.789" gradientUnits="userSpaceOnUse">
<stop stop-color="white"/>
<stop offset="0.09" stop-color="white"/>
<stop offset="1" stop-color="white"/>
</linearGradient>
<linearGradient id="paint138_linear_46_1277" x1="1519.25" y1="323.978" x2="1519.25" y2="708.378" gradientUnits="userSpaceOnUse">
<stop stop-color="white"/>
<stop offset="0.09" stop-color="white"/>
<stop offset="1" stop-color="white"/>
</linearGradient>
<linearGradient id="paint139_linear_46_1277" x1="1519.25" y1="317.389" x2="1519.25" y2="714.967" gradientUnits="userSpaceOnUse">
<stop stop-color="white"/>
<stop offset="0.09" stop-color="white"/>
<stop offset="1" stop-color="white"/>
</linearGradient>
<linearGradient id="paint140_linear_46_1277" x1="1519.25" y1="310.8" x2="1519.25" y2="721.555" gradientUnits="userSpaceOnUse">
<stop stop-color="white"/>
<stop offset="0.09" stop-color="white"/>
<stop offset="1" stop-color="white"/>
</linearGradient>
<linearGradient id="paint141_linear_46_1277" x1="1519.25" y1="304.211" x2="1519.25" y2="728.144" gradientUnits="userSpaceOnUse">
<stop stop-color="white"/>
<stop offset="0.09" stop-color="white"/>
<stop offset="1" stop-color="white"/>
</linearGradient>
<linearGradient id="paint142_linear_46_1277" x1="1519.25" y1="297.622" x2="1519.25" y2="734.733" gradientUnits="userSpaceOnUse">
<stop stop-color="white"/>
<stop offset="0.09" stop-color="white"/>
<stop offset="1" stop-color="white"/>
</linearGradient>
<linearGradient id="paint143_linear_46_1277" x1="1519.25" y1="291.033" x2="1519.25" y2="741.321" gradientUnits="userSpaceOnUse">
<stop stop-color="white"/>
<stop offset="0.09" stop-color="white"/>
<stop offset="1" stop-color="white"/>
</linearGradient>
<linearGradient id="paint144_linear_46_1277" x1="1519.25" y1="284.445" x2="1519.25" y2="747.911" gradientUnits="userSpaceOnUse">
<stop stop-color="white"/>
<stop offset="0.09" stop-color="white"/>
<stop offset="1" stop-color="white"/>
</linearGradient>
<linearGradient id="paint145_linear_46_1277" x1="1519.25" y1="277.855" x2="1519.25" y2="754.499" gradientUnits="userSpaceOnUse">
<stop stop-color="white"/>
<stop offset="0.09" stop-color="white"/>
<stop offset="1" stop-color="white"/>
</linearGradient>
<linearGradient id="paint146_linear_46_1277" x1="1519.25" y1="271.267" x2="1519.25" y2="761.088" gradientUnits="userSpaceOnUse">
<stop stop-color="white"/>
<stop offset="0.09" stop-color="white"/>
<stop offset="1" stop-color="white"/>
</linearGradient>
<linearGradient id="paint147_linear_46_1277" x1="1519.25" y1="264.678" x2="1519.25" y2="767.677" gradientUnits="userSpaceOnUse">
<stop stop-color="white"/>
<stop offset="0.09" stop-color="white"/>
<stop offset="1" stop-color="white"/>
</linearGradient>
<linearGradient id="paint148_linear_46_1277" x1="1519.25" y1="258.089" x2="1519.25" y2="774.266" gradientUnits="userSpaceOnUse">
<stop stop-color="white"/>
<stop offset="0.09" stop-color="white"/>
<stop offset="1" stop-color="white"/>
</linearGradient>
<linearGradient id="paint149_linear_46_1277" x1="1519.25" y1="251.499" x2="1519.25" y2="780.853" gradientUnits="userSpaceOnUse">
<stop stop-color="white"/>
<stop offset="0.09" stop-color="white"/>
<stop offset="1" stop-color="white"/>
</linearGradient>
<linearGradient id="paint150_linear_46_1277" x1="1519.25" y1="244.912" x2="1519.25" y2="787.444" gradientUnits="userSpaceOnUse">
<stop stop-color="white"/>
<stop offset="0.09" stop-color="white"/>
<stop offset="1" stop-color="white"/>
</linearGradient>
<linearGradient id="paint151_linear_46_1277" x1="1519.25" y1="238.323" x2="1519.25" y2="794.032" gradientUnits="userSpaceOnUse">
<stop stop-color="white"/>
<stop offset="0.09" stop-color="white"/>
<stop offset="1" stop-color="white"/>
</linearGradient>
<clipPath id="clip0_46_1277">
<rect width="1920" height="637" fill="white"/>
</clipPath>
</defs>
</svg>
