<svg width="100" height="100" viewBox="0 0 100 100" fill="none" xmlns="http://www.w3.org/2000/svg">
<path d="M88.3399 26.9926L50.7499 5.28258C50.2899 5.01258 49.7099 5.01258 49.2499 5.28258L11.6499 26.9926C11.1899 27.2626 10.8999 27.7526 10.8999 28.2926V71.7026C10.8999 72.2426 11.1899 72.7326 11.6499 73.0026L49.2499 94.7126C49.4799 94.8426 49.7399 94.9126 49.9999 94.9126C50.2599 94.9126 50.5199 94.8426 50.7499 94.7126L88.3499 73.0026C88.8099 72.7326 89.0999 72.2426 89.0999 71.7026V28.2826C89.0999 27.7426 88.8099 27.2526 88.3499 26.9826L88.3399 26.9926ZM13.8999 30.8826L29.6599 39.9726V58.2326L13.8999 49.1626V30.8826ZM68.7599 37.3826L52.9799 28.2526L68.7599 19.1426L84.5899 28.2826L68.7699 37.3726L68.7599 37.3826ZM65.7499 39.1126L49.9199 48.2126L34.1599 39.1226L49.9699 29.9926L65.7499 39.1126ZM31.1599 37.3826L15.3999 28.2926L31.2299 19.1526L46.9799 28.2526L31.1599 37.3826ZM32.6599 41.7126L48.4299 50.8026L48.4599 69.0526L32.6699 59.9626V41.7026L32.6599 41.7126ZM48.4599 72.5226L48.4899 90.8126L32.6599 81.6726V63.4326L48.4599 72.5226ZM51.4599 72.5626L67.2599 63.4626V81.7126L51.4899 90.8126L51.4599 72.5626ZM51.4599 69.1026L51.4299 50.8026L67.2599 41.7026V59.9926L51.4599 69.1026ZM70.2599 39.9826L86.0899 30.8826V49.1426L70.2599 58.2626V39.9826ZM49.9999 8.31258L65.7599 17.4126L49.9799 26.5226L34.2299 17.4126L49.9999 8.31258ZM13.8999 52.6326L29.6599 61.7026V79.9326L13.8999 70.8326V52.6326ZM70.2599 79.9726V61.7226L86.0899 52.6026V70.8326L70.2599 79.9726Z" fill="white"/>
</svg>
