<svg width="78" height="60" viewBox="0 0 78 60" fill="none" xmlns="http://www.w3.org/2000/svg">
<path d="M53.022 16.2L30.468 3.17399C30.192 3.01199 29.844 3.01199 29.568 3.17399L7.00798 16.2C6.73198 16.362 6.55798 16.656 6.55798 16.98V43.026C6.55798 43.35 6.73198 43.644 7.00798 43.806L29.568 56.832C29.706 56.91 29.862 56.952 30.018 56.952C30.174 56.952 30.33 56.91 30.468 56.832L53.028 43.806C53.304 43.644 53.478 43.35 53.478 43.026V16.974C53.478 16.65 53.304 16.356 53.028 16.194L53.022 16.2ZM8.35798 18.534L17.814 23.988V34.944L8.35798 29.502V18.534ZM41.274 22.434L31.806 16.956L41.274 11.49L50.772 16.974L41.28 22.428L41.274 22.434ZM39.468 23.472L29.97 28.932L20.514 23.478L30 18L39.468 23.472ZM18.714 22.434L9.25798 16.98L18.756 11.496L28.206 16.956L18.714 22.434ZM19.614 25.032L29.076 30.486L29.094 41.436L19.62 35.982V25.026L19.614 25.032ZM29.094 43.518L29.112 54.492L19.614 49.008V38.064L29.094 43.518ZM30.894 43.542L40.374 38.082V49.032L30.912 54.492L30.894 43.542ZM30.894 41.466L30.876 30.486L40.374 25.026V36L30.894 41.466ZM42.174 23.994L51.672 18.534V29.49L42.174 34.962V23.994ZM30.018 4.99199L39.474 10.452L30.006 15.918L20.556 10.452L30.018 4.99199ZM8.35798 31.584L17.814 37.026V47.964L8.35798 42.504V31.584ZM42.174 47.988V37.038L51.672 31.566V42.504L42.174 47.988Z" fill="#000B20"/>
<rect x="77" y="8" width="1" height="44" fill="#000B20"/>
</svg>
