<svg width="20" height="20" viewBox="0 0 20 20" fill="none" xmlns="http://www.w3.org/2000/svg">
<path d="M9.99967 16.125C11.6941 14.5694 12.9511 13.1564 13.7705 11.8858C14.59 10.6153 14.9997 9.48666 14.9997 8.49999C14.9997 6.9861 14.5172 5.74666 13.5522 4.78166C12.5872 3.81666 11.403 3.33388 9.99967 3.33332C8.59634 3.33277 7.41245 3.81555 6.44801 4.78166C5.48356 5.74777 5.00079 6.98721 4.99967 8.49999C4.99967 9.4861 5.4094 10.6147 6.22884 11.8858C7.04829 13.1569 8.30523 14.57 9.99967 16.125ZM9.99967 17.7708C9.80523 17.7708 9.61079 17.7361 9.41634 17.6667C9.2219 17.5972 9.04829 17.493 8.89551 17.3542C7.99273 16.5208 7.19412 15.7083 6.49967 14.9167C5.80523 14.125 5.22551 13.3578 4.76051 12.615C4.29551 11.8722 3.94134 11.1569 3.69801 10.4692C3.45467 9.78138 3.33301 9.12499 3.33301 8.49999C3.33301 6.41666 4.00329 4.75693 5.34384 3.52082C6.6844 2.28471 8.23634 1.66666 9.99967 1.66666C11.763 1.66666 13.3152 2.28471 14.6563 3.52082C15.9975 4.75693 16.6675 6.41666 16.6663 8.49999C16.6663 9.12499 16.545 9.78138 16.3022 10.4692C16.0594 11.1569 15.7052 11.8722 15.2397 12.615C14.7741 13.3578 14.1941 14.125 13.4997 14.9167C12.8052 15.7083 12.0066 16.5208 11.1038 17.3542C10.9511 17.493 10.7775 17.5972 10.583 17.6667C10.3886 17.7361 10.1941 17.7708 9.99967 17.7708ZM9.99967 9.99999C10.458 9.99999 10.8505 9.83694 11.1772 9.51082C11.5038 9.18471 11.6669 8.79221 11.6663 8.33332C11.6658 7.87443 11.5027 7.48221 11.1772 7.15666C10.8516 6.8311 10.4591 6.66777 9.99967 6.66666C9.54023 6.66555 9.14801 6.82888 8.82301 7.15666C8.49801 7.48443 8.33467 7.87666 8.33301 8.33332C8.33134 8.78999 8.49467 9.18249 8.82301 9.51082C9.15134 9.83916 9.54356 10.0022 9.99967 9.99999Z" fill="white"/>
</svg>
