<svg width="20" height="20" viewBox="0 0 20 20" fill="none" xmlns="http://www.w3.org/2000/svg">
<path d="M3.33366 16.6667C2.87533 16.6667 2.4831 16.5036 2.15699 16.1775C1.83088 15.8514 1.66755 15.4589 1.66699 15V5.00001C1.66699 4.54168 1.83033 4.14945 2.15699 3.82334C2.48366 3.49723 2.87588 3.3339 3.33366 3.33334H16.667C17.1253 3.33334 17.5178 3.49668 17.8445 3.82334C18.1712 4.15001 18.3342 4.54223 18.3337 5.00001V15C18.3337 15.4583 18.1706 15.8508 17.8445 16.1775C17.5184 16.5042 17.1259 16.6672 16.667 16.6667H3.33366ZM16.667 6.66668L10.4378 10.5625C10.3684 10.6042 10.2956 10.6356 10.2195 10.6567C10.1434 10.6778 10.0703 10.6881 10.0003 10.6875C9.93033 10.687 9.85755 10.6767 9.78199 10.6567C9.70644 10.6367 9.63338 10.6053 9.56283 10.5625L3.33366 6.66668V15H16.667V6.66668ZM10.0003 9.16668L16.667 5.00001H3.33366L10.0003 9.16668ZM3.33366 6.87501V5.64584V5.66668V5.65668V6.87501Z" fill="white"/>
</svg>
