<svg width="16" height="16" viewBox="0 0 16 16" fill="none" xmlns="http://www.w3.org/2000/svg">
<path d="M14.166 11.9997C14.166 12.2328 14.089 12.4202 13.9209 12.5885C13.7534 12.7563 13.5671 12.8338 13.334 12.8336H2.66602C2.43304 12.8336 2.24583 12.7562 2.07812 12.5885C1.91051 12.4208 1.83335 12.2334 1.83301 11.9997V4.06802L2.40137 4.42447L2.54785 4.51627H2.30176L2.16602 4.4313V12.4997H13.833V4.4313L13.0684 4.90982L8.09277 8.02115C8.07486 8.0319 8.05741 8.03906 8.04102 8.04361C8.01996 8.04942 8.00813 8.05045 8.00391 8.05045C7.99431 8.05037 7.97769 8.04815 7.95312 8.04166L7.90918 8.02213L3.16602 5.0563V4.90201L7.73438 7.75748L8 7.92252L8.26465 7.75748L13.5977 4.42447L14.166 4.06802V11.9997ZM13.333 3.16666C13.5659 3.16666 13.7535 3.24338 13.9219 3.41177C13.9503 3.44015 13.9748 3.47012 13.998 3.49966H2.00195C2.0251 3.47029 2.04991 3.44093 2.07812 3.41275C2.22573 3.2654 2.38783 3.18779 2.58203 3.17056L2.66699 3.16666H13.333Z" fill="#000B20" stroke="#000B20"/>
</svg>
