<svg width="20" height="20" viewBox="0 0 20 20" fill="none" xmlns="http://www.w3.org/2000/svg">
<rect width="20" height="20" rx="4" fill="white"/>
<path d="M8.85282 10.6199C8.81514 10.6199 8.0247 10.6202 7.66014 10.6198C7.47246 10.6197 7.4055 10.5522 7.4055 10.3634C7.40526 9.87819 7.40514 9.39303 7.4055 8.90787C7.40562 8.72139 7.47642 8.65023 7.6617 8.65011C8.02626 8.64987 8.81238 8.64999 8.85282 8.64999C8.85282 8.61675 8.8527 7.91631 8.85282 7.59375C8.85306 7.11687 8.93814 6.66039 9.18042 6.24243C9.42846 5.81463 9.78942 5.52159 10.252 5.35215C10.5483 5.24355 10.8559 5.20023 11.1703 5.19999C11.5636 5.19975 11.957 5.20011 12.3505 5.20083C12.5195 5.20107 12.5945 5.27583 12.5949 5.44611C12.5956 5.90247 12.5956 6.35883 12.5949 6.81507C12.5947 6.98715 12.5228 7.05627 12.3499 7.05819C12.0274 7.06167 11.7047 7.05951 11.3827 7.07247C11.0573 7.07247 10.8862 7.23135 10.8862 7.56807C10.8784 7.92423 10.883 8.28075 10.883 8.64987C10.9135 8.64987 11.8393 8.64975 12.272 8.64987C12.4685 8.64987 12.5357 8.71743 12.5357 8.91507C12.5357 9.39759 12.5356 9.88023 12.5353 10.3628C12.5351 10.5575 12.472 10.6197 12.2743 10.6198C11.8415 10.62 10.9193 10.6199 10.879 10.6199V14.5253C10.879 14.7335 10.8135 14.7999 10.6081 14.7999C10.1072 14.7999 9.60618 14.8 9.1053 14.7999C8.92374 14.7999 8.85294 14.7293 8.85294 14.5478C8.85282 13.2759 8.85282 10.6646 8.85282 10.6199Z" fill="#7BB8FF"/>
</svg>
