<svg width="101" height="100" viewBox="0 0 101 100" fill="none" xmlns="http://www.w3.org/2000/svg">
<path d="M96.7535 53.5075C96.6725 53.454 96.5833 53.4184 96.4958 53.3811L96.4991 53.3714L74.7972 44.0703V17.5915C74.7972 17.0471 74.5233 16.5399 74.068 16.2385C73.987 16.185 73.8995 16.1494 73.812 16.1105L73.8152 16.1024L51.1298 6.38004C50.7214 6.20665 50.2612 6.20665 49.8529 6.38004L27.1674 16.1024L27.1723 16.1121C27.0832 16.1494 26.9957 16.185 26.9146 16.2385C26.4593 16.5399 26.1855 17.0471 26.1855 17.5915V44.0703L4.48196 53.3714L4.4852 53.3811C4.3977 53.4184 4.3102 53.454 4.22918 53.5075C3.77385 53.8089 3.5 54.3161 3.5 54.8605V82.4071C3.5 83.0553 3.88565 83.6419 4.48196 83.8963L27.1674 93.6186C27.1901 93.6283 27.2144 93.6251 27.2371 93.6332C27.4202 93.7029 27.6114 93.7499 27.8059 93.7499C28.0003 93.7499 28.1915 93.7029 28.3746 93.6332C28.3973 93.6251 28.4216 93.6283 28.4443 93.6186L50.4913 84.1701L72.5384 93.6186C72.5611 93.6283 72.5854 93.6251 72.608 93.6332C72.7911 93.7029 72.9824 93.7499 73.1768 93.7499C73.3712 93.7499 73.5624 93.7029 73.7456 93.6332C73.7682 93.6251 73.7925 93.6283 73.8152 93.6186L96.5007 83.8963C97.097 83.6419 97.4827 83.0553 97.4827 82.4071V54.8605C97.4827 54.3161 97.2088 53.8089 96.7535 53.5075ZM26.1855 89.673L6.74078 81.3393V57.3186L26.1855 65.6523V89.673ZM27.8059 62.8199L9.23294 54.8605L27.8059 46.9011L46.3788 54.8605L27.8059 62.8199ZM48.8709 81.3377L29.4262 89.6714V65.6507L48.8709 57.317V81.3377ZM48.8709 52.4024L34.2874 46.1525L29.4262 44.0687V20.0497L48.8709 28.3833V52.4024ZM31.9184 17.5915L50.4913 9.63216L69.0642 17.5915L50.4913 25.5509L31.9184 17.5915ZM71.5564 20.048V44.0703L66.6952 46.1541L52.1117 52.404V28.3817L71.5564 20.048ZM71.5564 89.673L52.1117 81.3393V57.3186L71.5564 65.6523V89.673ZM73.1768 62.8199L54.6039 54.8605L73.1768 46.9011L91.7497 54.8605L73.1768 62.8199ZM94.2419 81.3393L74.7972 89.673V65.6507L94.2419 57.317V81.3393Z" fill="#000B20"/>
</svg>
