<svg width="79" height="60" viewBox="0 0 79 60" fill="none" xmlns="http://www.w3.org/2000/svg">
<path d="M30 3.75C30.1447 3.75 30.2874 3.78542 30.415 3.85254L52.8408 15.7559C52.8872 15.7608 52.9339 15.7688 52.9795 15.7812C53.2023 15.8424 53.3923 15.9897 53.5078 16.1914C53.5902 16.3354 53.6285 16.4986 53.623 16.6621C53.6233 16.6705 53.625 16.6791 53.625 16.6875V41.7002C53.6249 41.8514 53.5845 41.9999 53.5078 42.1309C53.431 42.262 53.3205 42.3716 53.1875 42.4473L31.0361 55.0439C31.0012 55.1194 30.9596 55.1907 30.9053 55.252C30.7646 55.4107 30.5739 55.5 30.375 55.5C30.3152 55.5 30.2564 55.4912 30.1992 55.4756C30.1341 55.4906 30.0675 55.5 30 55.5C29.8465 55.5 29.6955 55.4604 29.5625 55.3848L6.8125 42.4473C6.67949 42.3716 6.56898 42.262 6.49219 42.1309C6.41553 41.9999 6.37506 41.8514 6.375 41.7002V16.6875C6.375 16.6791 6.37573 16.6705 6.37598 16.6621C6.37054 16.4986 6.4098 16.3354 6.49219 16.1914C6.60767 15.9897 6.79767 15.8424 7.02051 15.7812C7.06578 15.7689 7.11214 15.7608 7.1582 15.7559L29.585 3.85254C29.7126 3.78542 29.8553 3.75 30 3.75ZM8.125 41.2021L29.625 53.4287V30.6621C29.6042 30.6521 29.5826 30.6435 29.5625 30.6318L8.125 18.1592V41.2021ZM31.125 30.2314V53.002L51.875 41.2021V18.1592L31.125 30.2314ZM9.09766 16.6885L30 28.8486L50.9014 16.6885L30 5.5918L9.09766 16.6885Z" fill="#000B20"/>
<rect x="78" y="8" width="1" height="44" fill="#000B20"/>
</svg>
