<svg width="100" height="100" viewBox="0 0 100 100" fill="none" xmlns="http://www.w3.org/2000/svg">
<path d="M88.3701 27L50.7801 5.29002C50.3201 5.02002 49.7401 5.02002 49.2801 5.29002L11.6801 27C11.2201 27.27 10.9301 27.76 10.9301 28.3V71.71C10.9301 72.25 11.2201 72.74 11.6801 73.01L49.2801 94.72C49.5101 94.85 49.7701 94.92 50.0301 94.92C50.2901 94.92 50.5501 94.85 50.7801 94.72L88.3801 73.01C88.84 72.74 89.1301 72.25 89.1301 71.71V28.29C89.1301 27.75 88.84 27.26 88.3801 26.99L88.3701 27ZM13.9301 30.89L29.6901 39.98V58.24L13.9301 49.17V30.89ZM68.7901 37.39L53.0101 28.26L68.7901 19.15L84.6201 28.29L68.8001 37.38L68.7901 37.39ZM65.7801 39.12L49.9501 48.22L34.1901 39.13L50.0001 30L65.7801 39.12ZM31.1901 37.39L15.4301 28.3L31.2601 19.16L47.0101 28.26L31.1901 37.39ZM32.6901 41.72L48.4601 50.81L48.4901 69.06L32.7001 59.97V41.71L32.6901 41.72ZM48.4901 72.53L48.5201 90.82L32.6901 81.68V63.44L48.4901 72.53ZM51.4901 72.57L67.2901 63.47V81.72L51.5201 90.82L51.4901 72.57ZM51.4901 69.11L51.4601 50.81L67.2901 41.71V60L51.4901 69.11ZM70.2901 39.99L86.1201 30.89V49.15L70.2901 58.27V39.99ZM50.0301 8.32002L65.7901 17.42L50.0101 26.53L34.2601 17.42L50.0301 8.32002ZM13.9301 52.64L29.6901 61.71V79.94L13.9301 70.84V52.64ZM70.2901 79.98V61.73L86.1201 52.61V70.84L70.2901 79.98Z" fill="#000B20"/>
</svg>
