<svg width="20" height="20" viewBox="0 0 20 20" fill="none" xmlns="http://www.w3.org/2000/svg">
<path d="M3.375 17.5C3.125 17.5 2.91667 17.4167 2.75 17.25C2.58333 17.0833 2.5 16.875 2.5 16.625V13.25C2.5 13.0694 2.5625 12.9064 2.6875 12.7608C2.8125 12.6153 2.97222 12.5144 3.16667 12.4583L6.04167 11.875C6.23611 11.8472 6.43417 11.8647 6.63583 11.9275C6.8375 11.9903 7.00056 12.0839 7.125 12.2083L9.08333 14.1667C9.61111 13.8611 10.1111 13.5242 10.5833 13.1558C11.0556 12.7875 11.5069 12.3883 11.9375 11.9583C12.3958 11.5139 12.8161 11.0522 13.1983 10.5733C13.5806 10.0944 13.9103 9.59778 14.1875 9.08333L12.1667 7.04167C12.0556 6.93056 11.9792 6.79861 11.9375 6.64583C11.8958 6.49306 11.8889 6.30556 11.9167 6.08333L12.4583 3.16667C12.4861 2.98611 12.5764 2.83 12.7292 2.69833C12.8819 2.56667 13.0556 2.50056 13.25 2.5H16.625C16.875 2.5 17.0833 2.58333 17.25 2.75C17.4167 2.91667 17.5 3.125 17.5 3.375C17.5 5.11111 17.1217 6.82639 16.365 8.52083C15.6083 10.2153 14.5353 11.7569 13.1458 13.1458C11.7564 14.5347 10.2147 15.6078 8.52083 16.365C6.82694 17.1222 5.11167 17.5006 3.375 17.5Z" fill="white"/>
</svg>
