<svg width="78" height="60" viewBox="0 0 78 60" fill="none" xmlns="http://www.w3.org/2000/svg">
<path d="M57.7521 32.1045C57.7035 32.0724 57.65 32.051 57.5975 32.0287L57.5994 32.0228L44.5783 26.4422V10.5549C44.5783 10.2282 44.414 9.92393 44.1408 9.7431C44.0922 9.71101 44.0397 9.68962 43.9872 9.66629L43.9891 9.66143L30.3778 3.82802C30.1328 3.72399 29.8567 3.72399 29.6117 3.82802L16.0004 9.66143L16.0034 9.66726C15.9499 9.68962 15.8974 9.71101 15.8488 9.7431C15.5756 9.92393 15.4113 10.2282 15.4113 10.5549V26.4422L2.38916 32.0228L2.39111 32.0287C2.33861 32.051 2.2861 32.0724 2.23749 32.1045C1.9643 32.2853 1.79999 32.5896 1.79999 32.9163V49.4443C1.79999 49.8332 2.03138 50.1851 2.38916 50.3378L16.0004 56.1712C16.0141 56.177 16.0286 56.1751 16.0422 56.1799C16.1521 56.2217 16.2668 56.2499 16.3835 56.2499C16.5002 56.2499 16.6149 56.2217 16.7248 56.1799C16.7384 56.1751 16.753 56.177 16.7666 56.1712L29.9948 50.5021L43.223 56.1712C43.2366 56.177 43.2512 56.1751 43.2648 56.1799C43.3747 56.2217 43.4894 56.2499 43.6061 56.2499C43.7227 56.2499 43.8375 56.2217 43.9473 56.1799C43.9609 56.1751 43.9755 56.177 43.9891 56.1712L57.6004 50.3378C57.9582 50.1851 58.1896 49.8332 58.1896 49.4443V32.9163C58.1896 32.5896 58.0253 32.2853 57.7521 32.1045ZM15.4113 53.8038L3.74446 48.8036V34.3912L15.4113 39.3914V53.8038ZM16.3835 37.6919L5.23975 32.9163L16.3835 28.1407L27.5273 32.9163L16.3835 37.6919ZM29.0226 48.8026L17.3557 53.8028V39.3904L29.0226 34.3902V48.8026ZM29.0226 31.4414L20.2724 27.6915L17.3557 26.4412V12.0298L29.0226 17.03V31.4414ZM18.851 10.5549L29.9948 5.7793L41.1385 10.5549L29.9948 15.3305L18.851 10.5549ZM42.6338 12.0288V26.4422L39.7171 27.6925L30.967 31.4424V17.029L42.6338 12.0288ZM42.6338 53.8038L30.967 48.8036V34.3912L42.6338 39.3914V53.8038ZM43.6061 37.6919L32.4623 32.9163L43.6061 28.1407L54.7498 32.9163L43.6061 37.6919ZM56.2451 48.8036L44.5783 53.8038V39.3904L56.2451 34.3902V48.8036Z" fill="#000B20"/>
<rect x="77" y="8" width="1" height="44" fill="#000B20"/>
</svg>
