<svg width="16" height="16" viewBox="0 0 16 16" fill="none" xmlns="http://www.w3.org/2000/svg">
<path d="M2.7 14C2.5 14 2.33333 13.9333 2.2 13.8C2.06667 13.6667 2 13.5 2 13.3V10.6C2 10.4556 2.05 10.3251 2.15 10.2087C2.25 10.0922 2.37778 10.0116 2.53333 9.96667L4.83333 9.5C4.98889 9.47778 5.14733 9.49178 5.30867 9.542C5.47 9.59222 5.60044 9.66711 5.7 9.76667L7.26667 11.3333C7.68889 11.0889 8.08889 10.8193 8.46667 10.5247C8.84444 10.23 9.20556 9.91067 9.55 9.56667C9.91667 9.21111 10.2529 8.84178 10.5587 8.45867C10.8644 8.07556 11.1282 7.67822 11.35 7.26667L9.73333 5.63333C9.64444 5.54444 9.58333 5.43889 9.55 5.31667C9.51667 5.19444 9.51111 5.04444 9.53333 4.86667L9.96667 2.53333C9.98889 2.38889 10.0611 2.264 10.1833 2.15867C10.3056 2.05333 10.4444 2.00044 10.6 2H13.3C13.5 2 13.6667 2.06667 13.8 2.2C13.9333 2.33333 14 2.5 14 2.7C14 4.08889 13.6973 5.46111 13.092 6.81667C12.4867 8.17222 11.6282 9.40556 10.5167 10.5167C9.40511 11.6278 8.17178 12.4862 6.81667 13.092C5.46156 13.6978 4.08933 14.0004 2.7 14Z" fill="#000B20"/>
</svg>
