<svg width="100" height="100" viewBox="0 0 100 100" fill="none" xmlns="http://www.w3.org/2000/svg">
<path d="M96.2632 53.5075C96.1822 53.454 96.0931 53.4184 96.0056 53.3811L96.0088 53.3714L74.307 44.0703V17.5915C74.307 17.0471 74.0331 16.5399 73.5778 16.2385C73.4968 16.185 73.4093 16.1494 73.3218 16.1105L73.325 16.1024L50.6395 6.38004C50.2312 6.20665 49.771 6.20665 49.3627 6.38004L26.6772 16.1024L26.6821 16.1121C26.5929 16.1494 26.5054 16.185 26.4244 16.2385C25.9691 16.5399 25.6952 17.0471 25.6952 17.5915V44.0703L3.99172 53.3714L3.99496 53.3811C3.90746 53.4184 3.81996 53.454 3.73894 53.5075C3.28361 53.8089 3.00977 54.3161 3.00977 54.8605V82.4071C3.00977 83.0553 3.39542 83.6419 3.99172 83.8963L26.6772 93.6186C26.6999 93.6283 26.7242 93.6251 26.7469 93.6332C26.93 93.7029 27.1212 93.7499 27.3156 93.7499C27.5101 93.7499 27.7013 93.7029 27.8844 93.6332C27.9071 93.6251 27.9314 93.6283 27.9541 93.6186L50.0011 84.1701L72.0481 93.6186C72.0708 93.6283 72.0951 93.6251 72.1178 93.6332C72.3009 93.7029 72.4921 93.7499 72.6866 93.7499C72.881 93.7499 73.0722 93.7029 73.2553 93.6332C73.278 93.6251 73.3023 93.6283 73.325 93.6186L96.0105 83.8963C96.6068 83.6419 96.9924 83.0553 96.9924 82.4071V54.8605C96.9924 54.3161 96.7186 53.8089 96.2632 53.5075ZM25.6952 89.673L6.25055 81.3393V57.3186L25.6952 65.6523V89.673ZM27.3156 62.8199L8.74271 54.8605L27.3156 46.9011L45.8885 54.8605L27.3156 62.8199ZM48.3807 81.3377L28.936 89.6714V65.6507L48.3807 57.317V81.3377ZM48.3807 52.4024L33.7972 46.1525L28.936 44.0687V20.0497L48.3807 28.3833V52.4024ZM31.4282 17.5915L50.0011 9.63216L68.574 17.5915L50.0011 25.5509L31.4282 17.5915ZM71.0662 20.048V44.0703L66.205 46.1541L51.6215 52.404V28.3817L71.0662 20.048ZM71.0662 89.673L51.6215 81.3393V57.3186L71.0662 65.6523V89.673ZM72.6866 62.8199L54.1136 54.8605L72.6866 46.9011L91.2595 54.8605L72.6866 62.8199ZM93.7516 81.3393L74.307 89.673V65.6507L93.7516 57.317V81.3393Z" fill="white"/>
</svg>
