<svg width="12" height="13" viewBox="0 0 12 13" fill="none" xmlns="http://www.w3.org/2000/svg">
<path d="M4.85245 6.88899C4.81477 6.88899 4.02433 6.88923 3.65977 6.88887C3.47209 6.88875 3.40513 6.82131 3.40513 6.63243C3.40489 6.14727 3.40477 5.66211 3.40513 5.17695C3.40525 4.99047 3.47605 4.91931 3.66133 4.91919C4.02589 4.91895 4.81201 4.91907 4.85245 4.91907C4.85245 4.88583 4.85233 4.18539 4.85245 3.86283C4.85269 3.38595 4.93777 2.92947 5.18005 2.51151C5.42809 2.08371 5.78905 1.79067 6.25165 1.62123C6.54793 1.51263 6.85549 1.46931 7.16989 1.46907C7.56325 1.46883 7.95661 1.46919 8.35009 1.46991C8.51917 1.47015 8.59417 1.54491 8.59453 1.71519C8.59525 2.17155 8.59525 2.62791 8.59453 3.08415C8.5943 3.25623 8.52241 3.32535 8.34949 3.32727C8.02705 3.33075 7.70437 3.32859 7.38229 3.34155C7.05697 3.34155 6.88585 3.50043 6.88585 3.83715C6.87805 4.19331 6.88261 4.54983 6.88261 4.91895C6.91309 4.91895 7.83889 4.91883 8.27161 4.91895C8.46817 4.91895 8.53537 4.98651 8.53537 5.18415C8.53537 5.66667 8.53525 6.14931 8.53489 6.63183C8.53477 6.82659 8.47165 6.88875 8.27389 6.88887C7.84117 6.88911 6.91897 6.88899 6.87865 6.88899V10.7944C6.87865 11.0026 6.81313 11.0689 6.60769 11.0689C6.10681 11.0689 5.60581 11.0691 5.10493 11.0689C4.92337 11.0689 4.85257 10.9984 4.85257 10.8168C4.85245 9.54495 4.85245 6.93363 4.85245 6.88899Z" fill="#011127"/>
</svg>
