<svg width="100" height="24" viewBox="0 0 100 24" fill="none" xmlns="http://www.w3.org/2000/svg">
<path d="M40.2856 20.1355V4.37902H52.5771C53.4686 4.37902 54.2082 4.46276 54.7947 4.63144C55.3824 4.80012 55.8493 5.08603 56.1963 5.49038C56.5434 5.89473 56.7907 6.4223 56.9392 7.07069C57.0878 7.72028 57.1621 8.52539 57.1621 9.48721V15.0297C57.1621 15.9915 57.0878 16.8014 56.9392 17.4569C56.7907 18.1137 56.5434 18.6401 56.1963 19.0373C55.8493 19.4344 55.3824 19.7168 54.7947 19.8842C54.2071 20.0529 53.4675 20.1367 52.5771 20.1367H40.2856V20.1355ZM54.2958 9.50875C54.2958 8.72996 54.1682 8.19999 53.9132 7.91647C53.6582 7.63415 53.2124 7.49299 52.576 7.49299H43.173V17.043H52.5771C53.228 17.043 53.677 16.9055 53.9254 16.6303C54.1727 16.3552 54.2969 15.8288 54.2969 15.05V9.50755L54.2958 9.50875Z" fill="#2B64F8"/>
<path d="M63.5734 13.8593V20.1339H60.7082V4.37745H74.4212V7.49261H63.5734V11.1114H74.1873V13.8605H63.5734V13.8593Z" fill="#000B20"/>
<path d="M77.6258 20.1351V4.37866H80.491V20.1351H77.6258Z" fill="#000B20"/>
<path d="M97.1769 20.1351L86.8813 8.52383V20.1351H84.1425V4.37866H87.2206L97.2401 15.7842V4.37866H100V20.1351H97.1769Z" fill="#000B20"/>
<path d="M35.6041 5.64726C35.1566 4.31112 34.4767 3.17654 33.583 2.27539C32.6841 1.3687 31.5914 0.730757 30.333 0.378885C29.4657 0.123986 28.2831 0 26.7165 0H4.64312L3.81619 4.54801H26.4244C28.0211 4.54801 28.8147 4.70801 29.2005 4.84308C29.8811 5.07997 30.4332 5.56345 30.889 6.32053C31.3584 7.10116 31.5966 8.29115 31.5966 9.85864C31.5966 11.3292 31.4033 12.6501 31.0219 13.7846C30.6367 14.931 30.1173 15.9637 29.4811 16.849C29.0137 17.4918 28.4917 18.0133 27.921 18.4033C27.5159 18.6866 27.0087 18.9076 26.4135 19.0599C25.3625 19.3294 24.133 19.4665 22.7604 19.4665H16.0435L15.1665 23.9993H23.6624C25.0524 23.9993 26.2511 23.8746 27.2224 23.628C28.5213 23.3025 29.6686 22.7878 30.6329 22.0993C31.5882 21.4178 32.5089 20.4709 33.3692 19.2857C34.2269 18.1041 34.9287 16.7208 35.4558 15.1748C35.9874 13.6149 36.2564 11.8715 36.2564 9.99232C36.2564 8.40336 36.0368 6.94115 35.6028 5.64588L35.6041 5.64726Z" fill="#000B20"/>
<path d="M26.1541 9.49361H2.80628L0 24H4.65852L6.5878 14.0423H25.2707L26.1541 9.49361Z" fill="#2B64F8"/>
</svg>
